<svg width="500" height="440" viewBox="0 0 500 440" fill="none" xmlns="http://www.w3.org/2000/svg">
<path d="M18 379C19 381.5 21.5 382 21.5 382C21.5 382 47.5 391 100 392.5C152.5 394 188.5 383.5 188.5 383.5L200.5 371.5V364.5C200.5 364.5 207 374.5 220.5 384C234 393.5 249 398 249 398V399L326.5 400L328 398.5C328 398.5 352.5 392 370 374C387.5 356 400 328 400 328L401.5 253.5H400C400 253.5 395.5 233.5 378 215C360.5 196.5 337 189.5 337 189.5V188.5L262.5 187.5L254 188.5V190.5C254 190.5 235 193.5 214 211.5C193 229.5 185.5 253.5 185.5 253.5L184 254.5L183.5 282L128.5 6L113.5 2.5L17.5 374C17.5 374 17 376.5 18 379Z" fill="black"/>
</svg>
