<svg viewBox="0 0 24 25" fill="none" xmlns="http://www.w3.org/2000/svg">
<path d="M10.4151 0.56886C18.9696 -0.326222 25.8408 7.28689 23.557 15.6869C21.2731 24.0869 10.9073 27.3328 4.30185 21.7459C3.90808 21.4115 2.74647 20.2803 2.71694 19.8082C2.67756 19.2574 3.1993 18.5984 3.74073 18.4803C4.15418 18.3918 4.65623 18.5885 4.95156 18.8738C5.72925 19.6016 6.26083 20.2312 7.25509 20.7918C14.8843 25.1295 23.8917 17.6049 20.9877 9.29345C18.881 3.28361 11.0451 0.922958 6.0541 4.99509C5.3847 5.54591 4.74483 6.72624 3.73089 6.50001C2.94336 6.32296 2.48068 5.33935 2.89413 4.64099C3.01226 4.43443 4.05574 3.44099 4.30185 3.23443C5.82769 1.94591 8.42654 0.785253 10.4151 0.56886Z" fill="#FFE680"/>
<path d="M13.3879 13.7786H1.14178C1.08271 13.7786 0.531439 13.5131 0.432998 13.4344C-0.167495 12.9524 -0.137962 11.9295 0.492062 11.4967C0.58066 11.4377 1.1024 11.2016 1.13193 11.2016H13.378L10.0901 7.86716C9.08599 6.64749 10.2574 5.05405 11.675 5.92946L17.4732 11.7229C17.8177 12.1459 17.8177 12.8344 17.4732 13.2475L11.675 19.0409C10.5331 19.7491 9.46007 18.8836 9.75539 17.5852C10.8087 16.1885 12.246 15.1065 13.378 13.7688L13.3879 13.7786Z" fill="#FFE680"/>
</svg>
