<svg width="170" height="88" viewBox="0 0 170 88" fill="none" xmlns="http://www.w3.org/2000/svg">
<g clip-path="url(#clip0_5307_951)">
<g clip-path="url(#clip1_5307_951)">
<path d="M1366.5 -43V56.0388L172.873 56.3982C162.364 56.3407 152.114 59.652 143.64 65.8427C125.073 79.5738 107.569 86.0033 84.443 86.0367C61.317 86.0702 43.791 79.7059 25.184 66.0287C16.685 59.8428 6.4152 56.5405 -4.1112 56.6089L-85 56.9683V-43H1366.5Z" fill="#CC0102"/>
</g>
<path d="M170 56V60C170 60 165 59.5 157 62.5C149 65.5 137 75 120.5 81C104 87 85 86.9998 85 86.9998V85.9998C85 85.9998 108.5 86 124.5 77.5C140.5 69 148.5 61 157 58.5C165.5 56 170 56 170 56Z" fill="#FFE26B"/>
<path d="M0 56V60C0 60 5 59.5 13 62.5C21 65.5 33 75 49.5 81C66 87 85 86.9998 85 86.9998V85.9998C85 85.9998 61.5 86 45.5 77.5C29.5 69 21.5 61 13 58.5C4.5 56 0 56 0 56Z" fill="#FFE26B"/>
</g>
<defs>
<clipPath id="clip0_5307_951">
<rect width="170" height="88" fill="white"/>
</clipPath>
<clipPath id="clip1_5307_951">
<rect width="1440" height="87" fill="white" transform="translate(-85)"/>
</clipPath>
</defs>
</svg>
