<svg width="146" height="78" viewBox="0 0 146 78" fill="none" xmlns="http://www.w3.org/2000/svg">
<g clip-path="url(#clip0_5387_357)">
<mask id="mask0_5387_357" style="mask-type:luminance" maskUnits="userSpaceOnUse" x="0" y="0" width="146" height="78">
<path d="M146 0H0V78H146V0Z" fill="white"/>
</mask>
<g mask="url(#mask0_5387_357)">
<mask id="mask1_5387_357" style="mask-type:luminance" maskUnits="userSpaceOnUse" x="-73" y="0" width="1237" height="78">
<path d="M1163.71 0H-73V77.1136H1163.71V0Z" fill="white"/>
</mask>
<g mask="url(#mask1_5387_357)">
<path d="M1173.58 -38.1133V49.6711L148.467 49.9897C139.442 49.9387 130.639 52.8737 123.361 58.3609C107.416 70.5317 92.3828 76.2306 72.5216 76.2602C52.6605 76.2899 37.6087 70.6488 21.6286 58.5258C14.3295 53.0428 5.50952 50.1158 -3.5308 50.1764L-73 50.495V-38.1133H1173.58Z" fill="#CC0102"/>
</g>
<path d="M146 49.9999V52.9999C146 52.9999 141.706 52.7383 134.835 55.3974C127.965 58.0565 117.659 66.4769 103.488 71.7951C89.3176 77.1133 73 77.0001 73 77.0001V75.9999C73 75.9999 93.1824 76.2269 106.924 68.6928C120.665 61.1587 127.535 54.2159 134.835 52C142.135 49.7841 146 49.9999 146 49.9999Z" fill="#FFE26B"/>
<path d="M0 50V53C0 53 4.29412 53.1023 11.1647 55.7614C18.0353 58.4205 28.3412 66.8409 42.5118 72.1591C56.6824 77.4773 73 77 73 77V76C73 76 52.8176 76.5909 39.0765 69.0568C25.3353 61.5227 21 56.5 11.1647 52.5C3.86471 50.2841 0 50 0 50Z" fill="#FFE26B"/>
</g>
</g>
<defs>
<clipPath id="clip0_5387_357">
<rect width="146" height="78" fill="white"/>
</clipPath>
</defs>
</svg>
