<svg viewBox="0 0 300 171" fill="none" xmlns="http://www.w3.org/2000/svg">
<path d="M187.281 3.88173C186.669 4.47369 186.268 5.25355 186.14 6.09992C186.008 6.74242 185.935 7.39583 185.921 8.05192C185.94 8.79684 186.021 9.53885 186.162 10.2701C186.519 11.8724 187.018 13.4388 187.653 14.9505C174.175 10.4967 160.154 7.94397 145.987 7.36428C132.086 7.43435 118.285 9.75588 105.11 14.2407C105.697 12.8055 106.16 11.321 106.491 9.80429C106.784 8.48236 106.784 7.11129 106.491 5.78937C106.386 4.94048 105.99 4.15564 105.373 3.57118C105.102 3.32632 104.786 3.13781 104.444 3.01643C104.101 2.89505 103.738 2.84317 103.376 2.86378C103.013 2.88438 102.658 2.97705 102.331 3.13649C102.004 3.29593 101.711 3.51902 101.469 3.793C98.9333 6.10828 96.0455 7.99568 92.9167 9.38283L91.0526 10.3367L87.7193 12.1112C86.059 12.9673 84.4548 13.9305 82.9167 14.9948V14.773C82.7827 13.9639 82.451 13.2014 81.9517 12.5548C81.6876 12.2218 81.3541 11.9518 80.9751 11.7639C80.5961 11.5761 80.1808 11.475 79.7588 11.4679C79.3366 11.461 78.9186 11.5536 78.538 11.7384C78.1574 11.9232 77.8245 12.1952 77.5658 12.5327C76.5784 13.6228 75.4999 14.6247 74.3421 15.5272L71.2061 18.0781L70.2851 18.7879C67.0268 21.1253 64.0787 23.8762 61.5131 26.9731C61.2061 27.3723 60.921 27.816 60.636 28.2596C60.5464 27.6468 60.3536 27.054 60.0658 26.5072C59.5485 25.7344 58.7678 25.1816 57.8728 24.9545C57.2226 24.8214 56.5471 24.9131 55.9546 25.2148C55.3621 25.5164 54.8869 26.0107 54.6053 26.6181C54.0477 27.5635 53.3855 28.4417 52.6316 29.2356L51.9956 29.9011L48.5746 33.7163C44.875 38.0702 42.4186 43.3617 41.4693 49.0218V49.4211L41.2061 51.6393C41.1824 51.9049 41.1824 52.1722 41.2061 52.4378C41.2032 53.18 41.2545 53.9215 41.3596 54.656L6.00877 54.5895C0.592105 54.5673 0 57.828 0 59.2255C0.124712 60.7284 0.664202 62.1656 1.55702 63.3735C1.92982 68.7637 2.19298 74.287 2.19298 79.6772C2.19298 81.5848 2.19298 83.5812 2.19298 85.6441C2.19298 91.7663 2.19298 98.5539 1.92982 105.918V107.271C1.86912 109.098 2.52316 110.876 3.75 112.218C5.06002 113.432 6.7763 114.097 8.55263 114.081H23.443H23.9254C28.7611 114.086 33.5317 115.209 37.8728 117.364L39.3421 118.274C42.6523 120.713 45.7419 123.445 48.5746 126.437L49.6491 127.457L51.7324 129.431C53.1199 130.699 54.5848 131.876 56.1184 132.958C55.4235 133.174 54.7424 133.434 54.0789 133.734C53.4272 133.979 52.8341 134.36 52.3389 134.853C51.8437 135.347 51.4576 135.94 51.2061 136.596C51.1069 136.95 51.0481 137.315 51.0307 137.683C51.0881 138.501 51.3921 139.283 51.9018 139.921C52.4115 140.56 53.1025 141.025 53.8816 141.254C56.2061 142.119 58.5307 143.273 61.0088 144.493L63.5307 145.735C67.7179 147.78 72.059 149.486 76.5131 150.837C77.6535 151.147 78.7061 151.436 80 151.657C79.693 152.012 79.4956 152.301 79.4079 152.412C78.9577 153.002 78.7181 153.729 78.7281 154.474C78.7176 154.637 78.7176 154.8 78.7281 154.962C78.9666 155.992 79.597 156.885 80.4824 157.447C81.5461 158.14 82.7551 158.573 84.0132 158.711C85.4997 158.84 86.9693 159.123 88.3991 159.554L90.9649 160.441L93.5526 161.329C98.863 163.133 104.49 163.783 110.066 163.236C112.146 163.058 114.207 162.702 116.228 162.172L116.053 162.46C115.661 163.245 115.451 164.109 115.439 164.989C115.447 165.683 115.612 166.365 115.921 166.985C116.418 167.688 117.077 168.258 117.842 168.645C118.606 169.032 119.453 169.223 120.307 169.203C121.338 169.203 130.263 170.423 131.513 170.601C133.061 171.035 134.712 170.899 136.17 170.216C137.628 169.533 138.799 168.349 139.474 166.874C140.965 164.235 142.818 161.823 144.978 159.709L146.469 158.223L148.092 159.887C150.257 162.029 152.13 164.454 153.662 167.096C154.344 168.564 155.517 169.741 156.974 170.418C158.43 171.096 160.077 171.232 161.623 170.8C162.939 170.623 172.193 169.514 172.763 169.469C173.624 169.535 174.486 169.363 175.259 168.972C176.031 168.582 176.684 167.987 177.149 167.251C177.544 166.582 177.741 165.812 177.719 165.033C177.71 164.206 177.531 163.39 177.193 162.637L176.996 162.327C178.955 162.88 180.958 163.259 182.982 163.458C188.542 164.044 194.161 163.439 199.474 161.684L202.061 160.796L204.627 159.931C206.037 159.431 207.519 159.168 209.013 159.155C210.314 159.074 211.57 158.645 212.653 157.913C213.155 157.607 213.573 157.179 213.868 156.667C214.163 156.156 214.326 155.577 214.342 154.985C214.268 153.88 213.827 152.833 213.092 152.012C214.29 151.843 215.477 151.599 216.645 151.28C221.029 150.004 225.305 148.372 229.43 146.4L231.974 145.158C234.43 143.982 236.754 142.94 239.035 141.986C239.819 141.78 240.517 141.327 241.03 140.693C241.542 140.059 241.842 139.277 241.886 138.459C241.887 138.084 241.836 137.71 241.732 137.35C241.096 135.287 238.64 134.289 236.798 133.668C238.332 132.603 239.797 131.439 241.184 130.185L245.57 126.059L246.053 125.549L248.969 122.732L249.627 122.133C251.07 120.822 252.651 119.677 254.342 118.717C255.522 118.008 256.762 117.407 258.048 116.921C261.669 115.661 265.469 115.009 269.298 114.991H284.013C287.259 114.991 290.746 114.547 290.724 108.957C290.724 108.78 290.153 98.1325 290.132 88.1285C290.132 88.1285 290.285 74.4644 290.307 71.8692H290.504C291.405 72.3165 292.233 72.8999 292.96 73.5993C294.276 74.775 296.031 76.3721 298.465 74.9302C299.715 74.1982 300.132 72.4459 300.132 70.0281C300.086 67.9633 299.91 65.9036 299.605 63.8615L299.452 62.3753C299.336 61.3808 299.054 60.4133 298.618 59.5139C298.311 58.8484 296.579 55.5877 290.307 55.5433L251.469 55.4546C251.469 54.6117 251.645 53.7687 251.667 53.1255C251.681 52.8447 251.681 52.5634 251.667 52.2826L251.403 50.0644V49.6873C250.443 44.0064 247.98 38.6945 244.276 34.3153L240.855 30.4334L240.263 29.7901C239.428 29.0047 238.691 28.1182 238.07 27.1505C237.778 26.5263 237.284 26.0214 236.67 25.719C236.056 25.4166 235.359 25.3347 234.693 25.4869C234.239 25.5809 233.81 25.7695 233.432 26.0407C233.055 26.3118 232.737 26.6596 232.5 27.0618C232.242 27.6034 232.057 28.178 231.952 28.7698C231.667 28.3261 231.382 27.8825 231.096 27.4832C228.525 24.373 225.578 21.6009 222.325 19.2316L221.447 18.5661L218.355 16.0818C217.201 15.1344 216.13 14.088 215.153 12.9541C214.89 12.6182 214.558 12.3448 214.179 12.1531C213.8 11.9615 213.384 11.8563 212.96 11.845C212.538 11.8474 212.121 11.9464 211.741 12.1346C211.361 12.3228 211.029 12.5954 210.768 12.9319C210.277 13.5835 209.946 14.3438 209.803 15.1501V15.3498C208.257 14.2779 206.646 13.3073 204.978 12.4439L201.645 10.7359L199.737 9.75992C196.615 8.34022 193.73 6.43959 191.184 4.12573C190.947 3.84932 190.659 3.62305 190.335 3.45995C190.011 3.29684 189.659 3.20013 189.298 3.17539C188.937 3.15065 188.575 3.19836 188.233 3.31578C187.89 3.4332 187.574 3.618 187.303 3.85955" fill="white"/>
<path d="M82.2369 56.5419C81.4255 56.7637 81.557 57.4735 82.2369 57.5179C87.3841 57.9729 92.5704 57.5682 97.5877 56.3201C101.974 55.0779 102.347 53.7248 100.329 49.0444C94.7009 52.488 88.5739 55.0178 82.1711 56.5419" fill="#8C734B"/>
<path d="M8.99124 62.3757C8.46492 61.7546 8.99124 61.4218 9.71492 61.5549C12.4454 61.8591 15.1919 61.9924 17.9386 61.9542C20.1316 61.9542 22.3246 61.9542 26.4035 61.7546C33.7061 61.5771 39.5614 64.6826 39.6711 73.511C39.7304 77.0728 38.4574 80.5258 36.1071 83.1788C33.7567 85.8317 30.5024 87.4888 26.9956 87.8183C22.9825 87.8183 21.4254 87.5077 21.4254 87.175C21.4254 86.8423 21.7544 86.8423 22.4342 86.6426C24.8712 85.8261 26.97 84.212 28.3995 82.0552C29.8291 79.8983 30.5079 77.3214 30.329 74.731C30.329 66.1466 26.0526 64.4829 23.2676 64.4829C20.8114 64.4829 20.2412 64.9044 20.1974 67.4997C20.1974 70.4277 19.9781 85.2452 19.9781 85.2452C19.9781 88.4172 19.9781 94.5616 20.1097 99.7077C20.0426 102.808 20.3818 105.903 21.1184 108.913C21.3377 109.446 21.1184 109.8 20.4605 109.8H10.9649C10.3728 109.8 9.91229 109.8 9.91229 108.536C9.91229 107.272 10.2193 94.8943 10.1974 84.4244C10.1754 73.9546 9.82457 63.2629 9.07896 62.3757" fill="#8C734B"/>
<path d="M60.4605 87.175C62.1611 87.1036 63.8311 86.6942 65.3753 85.97C66.9194 85.2458 68.3074 84.2211 69.46 82.9543C70.6125 81.6875 71.5072 80.2035 72.0927 78.587C72.6783 76.9705 72.9434 75.2532 72.8728 73.5331C72.8728 64.6604 66.9079 61.6436 59.7149 61.8654C54.5834 62.0429 53.6404 62.0429 52.1272 62.0207C47.7412 62.0207 44.7807 61.8211 43.2456 61.688C42.4123 61.688 41.9956 61.9098 42.5 62.5087C43.0044 63.1076 43.5965 74.1098 43.6184 84.5575C43.6404 95.0052 43.4211 107.116 42.8728 108.691C42.4781 109.867 43.3334 109.956 43.9474 109.934H52.9605C53.5088 109.934 53.7719 109.8 53.7719 108.714C53.7719 107.627 53.4649 90.9681 53.443 85.4004C53.443 85.4004 53.443 70.472 53.443 67.6549C53.443 64.8378 54.1886 64.616 56.6448 64.6382C59.1009 64.6604 63.4649 66.1909 63.4649 74.7531C63.4649 83.3153 57.3465 85.844 54.693 86.1324C53.9912 86.1324 53.5307 86.1324 53.5307 86.5539C53.5307 86.9753 54.1448 86.9753 54.6053 87.5299C56.4073 89.9978 57.8135 92.7376 58.7719 95.6484C61.2719 101.726 62.3026 107.848 67.2807 114.192C72.2588 120.536 80.4386 122.134 86.3816 121.801C87.1053 121.801 87.4123 121.024 86.886 120.78C83.77 119.226 81.126 116.851 79.2325 113.904C74.6491 107.848 71.7544 99.9961 69.4518 96.1586C66.8202 91.7222 63.5746 87.7517 60.2851 87.2859" fill="#8C734B"/>
<path d="M90.3728 110.089H81.0087C80.3947 110.089 79.9122 110.089 79.9342 108.824C79.9561 107.56 80.0658 95.1824 79.9342 84.7126C79.8026 74.2427 79.5614 63.5289 78.8157 62.6638C78.0701 61.7987 79.0131 61.7765 79.5394 61.8431C86.7763 62.8634 99.2763 61.8431 101.82 61.8431C102.675 61.8431 103.311 61.8431 103.465 63.1074C103.66 64.9644 103.762 66.83 103.772 68.6973C103.772 69.9395 103.289 69.518 103.026 68.9856C100.833 65.5918 96.864 65.4365 92.478 65.6584C90.1096 65.7693 90.0219 65.8136 90 68.6751C90 70.738 90 78.2798 89.8465 82.7606C90.6276 82.1437 91.5971 81.8221 92.5877 81.8511C95.0611 81.9372 97.5373 81.8556 100 81.6071C100.702 81.3631 101.009 81.6071 100.811 81.9398C100.329 83.1377 100.46 86.0879 97.6973 86.0435C95.5043 86.0435 92.1052 86.0435 91.5789 86.0435C90.4824 86.0435 89.8245 86.3319 89.8026 87.1526C89.8026 91.7664 89.8026 101.061 90.1754 104.565C90.4386 106.384 91.0307 106.784 93.421 106.673C95.8114 106.562 102.303 106.296 104.189 102.88C104.474 102.214 104.956 102.059 104.934 103.212C104.819 105.17 104.541 107.114 104.101 109.024C103.794 110.222 103.377 110.399 102.346 110.355C100.263 110.355 92.1491 110.177 90.2631 110.177" fill="#8C734B"/>
<path d="M169.715 88.1285C169.715 91.8994 170.088 101.194 170.263 104.854C170.417 108.092 171.118 107.915 172.259 107.915C177.346 107.937 184.211 104.255 184.211 86.5092C184.211 69.6288 177.281 65.1481 172.653 65.1259C170.461 65.1259 170.022 65.6139 169.846 71.1816C169.715 74.3536 169.693 84.3354 169.693 88.0842M159.035 63.6841C158.509 62.7303 158.443 61.9983 159.649 62.2201C164.095 62.8764 168.607 62.9435 173.07 62.4197C181.447 61.599 195 64.9263 195 84.9565C195 103.013 183.355 111.22 174.627 110.865C170.245 110.621 165.852 110.621 161.469 110.865C160.219 110.865 159.627 110.865 159.693 109.49C159.759 108.114 159.89 94.7831 159.912 88.1285C159.934 81.474 159.561 64.7932 158.991 63.7285" fill="#8C734B"/>
<path d="M229.167 63.9281C228.706 63.7728 228.553 63.063 229.167 63.0186C231.732 63.0186 235.921 62.7081 238.136 62.5972C239.956 62.5972 241.118 63.6619 242.127 65.9023C243.136 68.1426 255.658 98.798 255.658 98.798C255.658 98.798 255.219 66.9448 255.241 65.7914C255.263 64.6379 255.11 62.9964 256.711 62.9964H260.461C260.811 62.9964 260.855 63.4844 260.461 63.7063C260.167 63.9122 259.928 64.1876 259.763 64.5085C259.599 64.8294 259.515 65.186 259.518 65.5474C259.518 66.5234 259.518 103.678 259.518 105.807C259.518 106.806 259.518 108.026 259.518 109.046C259.518 110.066 260.263 110.998 258.75 111.02H254.364C252.896 111.079 251.451 110.64 250.258 109.771C249.066 108.903 248.195 107.656 247.785 106.229C246.579 103.39 235.197 75.8176 235.197 75.8176C235.197 75.8176 235.197 105.519 235.197 106.606C235.197 107.693 235.197 110 236.031 110.155C236.864 110.31 236.579 110.931 236.031 110.931H231.645C231.338 110.931 230.768 111.109 230.768 110.111C230.768 109.113 231.272 66.9226 231.272 66.9226C230.417 65.1037 229.671 64.283 228.86 64.0168" fill="#8C734B"/>
<path d="M274.737 66.8782C274.737 72.3349 274.934 80.1873 274.956 87.5517C274.956 98.1103 274.956 107.892 274.956 108.891C274.956 110.576 274.715 111.109 276.009 111.109C277.303 111.109 283.816 111.109 284.912 111.242C286.009 111.375 285.921 111.042 285.746 109.978C285.529 108.71 285.427 107.426 285.439 106.14C285.329 103.678 285.044 88.3946 285.044 82.2059C285.044 76.0171 285.044 66.856 285.044 66.856C288.289 66.856 293.443 67.1444 295.154 70.516C295.439 71.1149 295.833 71.1815 295.768 70.3164C295.702 69.4513 295.504 65.88 295.219 64.2829C294.934 62.6858 294.693 62.8411 293.618 62.8189C292.544 62.7967 283.004 63.196 279.89 63.1738C276.776 63.1738 267.588 62.708 266.513 62.708C265.439 62.708 265.11 62.708 264.934 63.8393C264.759 64.9706 264.452 69.0742 264.408 70.1389C264.364 71.2037 264.715 70.9597 265 70.3829C266.689 67.0557 271.732 66.8782 274.978 66.856" fill="#8C734B"/>
<path d="M140.592 64.8379C140.627 64.1507 140.434 63.4714 140.044 62.908C139.649 62.287 140.044 61.9764 140.702 62.0208C141.974 62.0208 147.632 62.4422 149.167 62.3535C150.702 62.2648 151.009 62.2204 151.009 63.6844C151.009 65.1484 150.746 75.2412 150.636 80.7866C150.526 86.3321 150.811 102.724 150.987 104.832C150.998 106.388 151.197 107.938 151.579 109.446C151.93 110.133 152.215 110.843 151.316 110.643C150.417 110.444 142.741 110.311 141.579 110.422C141.096 110.422 140.855 110.178 140.921 109.667C140.987 109.157 141.14 88.1066 141.118 84.5132C141.118 81.6074 140.921 69.5404 140.592 64.8379Z" fill="#8C734B"/>
<path d="M108.882 101.282C108.882 100.572 109.211 100.306 109.561 100.972C110.421 102.813 111.771 104.377 113.46 105.485C115.149 106.594 117.11 107.205 119.123 107.249C123.728 107.249 126.601 105.231 126.601 101.171C126.601 90.5463 109.846 85.6441 109.846 74.0651C109.846 64.8153 117.061 61.3106 123.531 61.3328C126.253 61.31 128.969 61.6077 131.623 62.22C131.967 62.2703 132.283 62.4389 132.519 62.6974C132.755 62.956 132.895 63.2887 132.917 63.6397C133.07 65.0371 133.092 68.3866 133.092 69.3404C133.092 70.2942 132.785 70.0502 132.215 69.3404C131.223 68.0012 129.944 66.9065 128.474 66.1382C127.004 65.3699 125.382 64.948 123.728 64.904C120.68 64.904 118.684 66.2571 118.684 69.0964C118.684 78.1244 135.417 81.8732 135.439 96.3136C135.439 106.872 127.346 111.198 120.395 111.175C117.432 111.227 114.478 110.846 111.623 110.044C109.561 109.401 109.43 109.068 109.079 106.584C108.883 104.839 108.803 103.083 108.838 101.327" fill="#8C734B"/>
<path d="M210.855 110.532H201.469C200.855 110.532 200.417 110.532 200.395 109.268C200.373 108.004 200.526 95.6484 200.526 85.1564C200.526 74.6644 200.132 63.9727 199.386 62.9745C198.64 61.9764 199.583 62.0873 200.132 62.1538C207.368 63.1964 219.868 62.1538 222.412 62.1538C223.246 62.1538 223.882 62.1538 224.057 63.396C224.245 65.2532 224.34 67.1189 224.342 68.9858C224.342 70.228 223.86 69.8065 223.618 69.252C221.425 65.8582 217.456 65.7251 213.07 65.9469C210.68 66.0578 210.614 66.1022 210.614 68.9636C210.614 71.0266 210.504 78.5684 210.439 83.0491C211.218 82.4289 212.189 82.1068 213.18 82.1397C215.654 82.2294 218.131 82.1405 220.592 81.8735C221.272 81.6517 221.579 81.8735 221.382 82.2062C220.899 83.4262 221.075 86.3542 218.289 86.332C216.096 86.332 212.697 86.332 212.171 86.332C211.053 86.332 210.351 86.6426 210.395 87.4189C210.395 92.055 210.395 101.371 210.789 104.854C211.009 106.673 211.601 107.072 214.013 107.072C216.425 107.072 222.785 106.717 224.781 103.257C225.044 102.614 225.526 102.458 225.504 103.612C225.424 105.573 225.145 107.52 224.671 109.423C224.364 110.599 223.969 110.799 222.961 110.776C220.768 110.776 212.741 110.577 210.855 110.577" fill="#8C734B"/>
<path d="M80.6579 55.1664C79.8465 55.3661 79.9781 56.0759 80.6579 56.1424C85.8064 56.5906 90.9927 56.1784 96.0088 54.9224C100.395 53.7024 100.789 52.3493 98.75 47.6689C93.1191 51.107 86.993 53.6365 80.5921 55.1664" fill="#E1251B"/>
<path d="M6.68859 60.1572C6.1842 59.5583 6.68859 59.2034 7.41227 59.3365C10.1426 59.6417 12.8896 59.7676 15.636 59.7136C17.8289 59.7136 20.0219 59.7136 24.1228 59.5361C31.4254 59.3587 37.2807 62.4641 37.2807 71.2925C37.3405 74.8508 36.0706 78.3009 33.7247 80.9533C31.3789 83.6057 28.13 85.2651 24.6272 85.5998C20.5921 85.5998 19.0789 85.2893 19.0789 84.9565C19.0789 84.6238 19.364 84.6016 20.0658 84.4242C22.5029 83.6103 24.6013 81.9961 26.0277 79.838C27.454 77.6798 28.1266 75.1015 27.9386 72.5125C27.9386 63.9281 23.6842 62.2645 20.8772 62.2645C18.443 62.2645 17.8947 62.7081 17.8289 65.2812C17.8289 68.2314 17.6096 83.0267 17.6096 83.0267C17.6096 86.2209 17.6096 92.3431 17.7631 97.4893C17.6526 100.584 17.9925 103.678 18.7719 106.673C18.9912 107.227 18.7719 107.582 18.0702 107.582H8.50876C7.91666 107.582 7.4342 107.582 7.45613 106.34C7.47806 105.098 7.74122 92.698 7.74122 82.2282C7.74122 71.7583 7.36841 61.0445 6.6228 60.1572" fill="#E1251B"/>
<path d="M58.1579 84.9567C61.5942 84.8125 64.8336 83.295 67.1648 80.7374C69.4961 78.1797 70.7287 74.7909 70.5921 71.3148C70.5921 62.4421 64.6053 59.4032 57.4342 59.6472C52.2807 59.8246 51.3377 59.8025 49.8246 59.8025C45.4386 59.8025 42.5 59.625 40.943 59.4697C40.1316 59.4697 39.693 59.6694 40.1974 60.2905C40.7018 60.9115 41.3158 71.8916 41.3158 82.4723C41.3158 93.0531 41.0965 104.898 40.5702 106.473C40.1754 107.604 41.0307 107.693 41.6447 107.715H50.6798C51.2062 107.715 51.4693 107.582 51.4474 106.495C51.4254 105.408 51.1623 88.7498 51.1404 83.2043C51.1404 83.2043 51.25 68.2537 51.25 65.4588C51.25 62.6639 51.9956 62.4199 54.4298 62.4421C57.2369 62.4421 61.25 63.9948 61.25 72.5792C61.25 81.1636 55.1535 83.6701 52.4781 83.9363C51.7983 83.9363 51.3158 83.9363 51.3158 84.3578C51.3158 84.7792 51.9298 84.8014 52.3904 85.3338C54.1974 87.7985 55.604 90.5392 56.557 93.4523C59.057 99.508 60.0877 105.63 65.0658 111.996C70.0439 118.363 78.2237 119.96 84.1667 119.605C84.8904 119.605 85.1974 118.851 84.6711 118.607C81.5637 117.029 78.9235 114.649 77.0175 111.708C72.4342 105.63 69.5614 97.8222 67.2369 93.9625C64.6053 89.5262 61.3377 85.5112 58.0702 85.0898" fill="#E1251B"/>
<path d="M88.0702 107.871H78.6842C78.0702 107.871 77.6316 107.871 77.6097 106.651C77.5877 105.431 77.7632 93.0088 77.7632 82.5389C77.7632 72.0691 77.3684 61.3331 76.6228 60.468C75.8772 59.6029 76.8202 59.5585 77.3465 59.6251C84.5833 60.6898 97.0833 59.6251 99.6272 59.6251C100.461 59.6251 101.097 59.6251 101.272 60.8894C101.468 62.7388 101.57 64.5971 101.579 66.4571C101.579 67.7214 101.075 67.2778 100.833 66.7233C98.6404 63.3516 94.6711 63.1963 90.307 63.4182C87.9167 63.5513 87.807 63.5734 87.829 66.4349C87.829 68.4978 87.829 76.0396 87.6535 80.5204C88.4347 79.9035 89.4042 79.5819 90.3948 79.6109C92.8681 79.6973 95.3444 79.6158 97.807 79.3669C98.4869 79.1229 98.7939 79.3669 98.6404 79.6775C98.114 80.8753 98.2895 83.8255 95.5044 83.8033C93.3114 83.8033 89.9123 83.8033 89.386 83.8033C88.2895 83.8033 87.6097 84.0917 87.6097 84.8902C87.6097 89.5262 87.5 98.8426 88.0044 102.325C88.2456 104.166 88.8377 104.543 91.2281 104.432C93.6184 104.322 100 104.078 102.018 100.617C102.259 99.9739 102.741 99.7964 102.741 100.972C102.639 102.931 102.36 104.876 101.908 106.784C101.601 107.982 101.184 108.159 100.175 108.137C97.9825 108.137 89.9562 107.937 88.0702 107.937" fill="#E1251B"/>
<path d="M167.412 85.9103C167.412 89.6812 167.785 98.9754 167.939 102.635C168.092 105.874 168.794 105.674 169.978 105.697C175.066 105.697 182.018 102.037 182.018 84.291C182.018 67.455 175.11 62.9743 170.461 62.9299C168.268 62.9299 167.829 63.4179 167.653 68.9855C167.653 72.1575 167.5 82.1172 167.5 85.8881M156.842 61.4881C156.36 60.5342 156.228 59.7801 157.456 60.0462C161.904 60.6783 166.414 60.7379 170.877 60.2237C179.232 59.403 192.807 62.7303 192.807 82.7605C192.807 100.817 181.162 109.002 172.434 108.669C168.051 108.437 163.659 108.437 159.276 108.669C158.048 108.669 157.456 108.669 157.522 107.338C157.522 105.541 157.697 92.6092 157.697 85.9768C157.697 79.3445 157.39 62.6193 156.798 61.5768" fill="#E1251B"/>
<path d="M226.864 61.71C226.382 61.5548 226.25 60.8449 226.864 60.8228L235.833 60.3569C237.675 60.3569 238.816 61.4438 239.825 63.6842C240.833 65.9246 253.355 96.5799 253.355 96.5799C253.355 96.5799 252.939 64.7268 252.939 63.5733C252.939 62.4198 252.807 60.7562 254.408 60.7784H258.158C258.509 60.7784 258.575 61.2664 258.158 61.466C257.869 61.679 257.637 61.9601 257.48 62.2849C257.323 62.6096 257.247 62.9681 257.259 63.3293C257.259 64.2831 257.259 101.46 257.259 103.589C257.259 104.61 257.259 105.808 257.259 106.806C257.259 107.804 258.004 108.78 256.491 108.78H252.105C250.634 108.838 249.187 108.395 247.994 107.522C246.801 106.65 245.932 105.398 245.526 103.966C244.32 101.127 232.939 73.5551 232.939 73.5551C232.939 73.5551 232.939 103.257 232.939 104.344C232.939 105.43 232.939 107.737 233.772 107.87C234.605 108.004 234.32 108.669 233.772 108.669H229.518C229.167 108.669 228.64 108.846 228.618 107.848C228.596 106.85 229.123 64.6602 229.123 64.6602C228.268 62.8413 227.522 62.0206 226.711 61.7544" fill="#E1251B"/>
<path d="M272.434 64.6378C272.434 70.1167 272.632 77.9469 272.653 85.3335C272.653 95.9143 272.653 105.674 272.653 106.672C272.653 108.38 272.434 108.891 273.706 108.891C274.978 108.891 281.513 108.891 282.653 109.024C283.443 109.157 283.618 108.802 283.421 107.759C283.241 106.488 283.145 105.206 283.136 103.922C283.136 101.46 282.741 86.1764 282.741 80.0099C282.741 73.8433 282.741 64.6378 282.741 64.6378C285.987 64.6378 291.118 64.9262 292.851 68.2978C293.136 68.8746 293.487 68.9855 293.465 68.076C293.443 67.1666 293.158 63.3735 292.895 61.7764C292.632 60.1793 292.39 60.3567 291.316 60.3567C290.241 60.3567 283.136 60.5342 277.917 60.512C272.697 60.4898 265.175 60.2236 264.101 60.2236C263.026 60.2236 262.697 60.2236 262.544 61.3771C262.39 62.5305 262.039 66.9004 261.974 68.0317C261.908 69.1629 262.303 68.8302 262.588 68.2535C264.276 64.9262 269.298 64.7487 272.566 64.7044" fill="#E1251B"/>
<path d="M138.311 62.6417C138.311 61.2442 138.048 61.1777 137.719 60.6897C137.39 60.2017 137.719 59.758 138.377 59.8024C139.671 59.9133 145.329 60.2238 146.842 60.1351C148.355 60.0464 148.684 60.002 148.706 61.4882C148.728 62.9744 148.421 73.0228 148.355 78.5682C148.289 84.1137 148.509 100.506 148.684 102.636C148.697 104.185 148.896 105.727 149.276 107.227C149.627 107.937 149.912 108.625 149.013 108.425C145.773 108.189 142.523 108.123 139.276 108.225C138.794 108.225 138.575 107.959 138.597 107.449C138.618 106.939 138.816 85.8661 138.816 82.2948C138.816 79.389 138.618 67.322 138.311 62.6417Z" fill="#E1251B"/>
<path d="M106.579 99.0645C106.579 98.3546 106.886 98.0885 107.281 98.7317C108.121 100.58 109.46 102.152 111.144 103.266C112.827 104.381 114.787 104.992 116.798 105.031C121.404 105.031 124.298 103.013 124.298 98.9536C124.298 88.3063 107.566 83.4262 107.544 71.8251C107.544 62.6196 114.759 59.0927 121.206 59.1371C123.928 59.1021 126.644 59.3925 129.298 60.0022C129.642 60.0435 129.961 60.2064 130.197 60.4621C130.434 60.7178 130.574 61.0498 130.592 61.3996C130.811 62.8193 130.789 66.1909 130.811 67.1004C130.833 68.0098 130.482 67.8324 129.912 67.1004C128.92 65.7612 127.641 64.6665 126.172 63.8982C124.702 63.1299 123.079 62.708 121.425 62.664C118.377 62.664 116.382 64.0393 116.382 66.8786C116.382 75.7513 133.114 79.6331 133.136 94.0514C133.136 104.632 125.066 108.958 118.114 108.935C115.151 108.988 112.197 108.607 109.342 107.804C107.303 107.161 107.149 106.828 106.798 104.344C106.614 102.598 106.534 100.842 106.557 99.0866" fill="#E1251B"/>
<path d="M208.553 108.314H199.189C198.553 108.314 198.092 108.314 198.092 107.094C198.092 105.874 198.224 93.43 198.224 82.9601C198.224 72.4903 197.851 61.7765 197.105 60.9114C196.36 60.0463 197.303 60.0241 197.807 60.0906C205.066 61.1332 217.544 60.0906 220.11 60.0906C220.965 60.0906 221.579 60.0906 221.754 61.355C221.93 62.6194 222.018 65.7914 222.061 66.9448C222.105 68.0983 221.557 67.7877 221.316 67.2332C219.123 63.8394 215.154 63.6841 210.79 63.9059C208.377 64.0168 208.311 64.0612 208.311 66.9226C208.311 68.9856 208.311 76.5274 208.114 81.0081C208.917 80.4008 209.897 80.0808 210.899 80.0987C213.365 80.2065 215.836 80.125 218.289 79.8547C218.991 79.6329 219.276 79.8547 219.079 80.2096C218.597 81.3852 218.772 84.3576 215.987 84.3132C213.794 84.3132 210.417 84.3132 209.868 84.3132C208.794 84.3132 208.092 84.6238 208.092 85.4223C208.092 90.0583 208.092 99.3525 208.465 102.857C208.728 104.676 209.298 105.075 211.732 105.075C214.167 105.075 220.504 104.698 222.456 101.282C222.741 100.617 223.224 100.439 223.224 101.615C223.117 103.576 222.824 105.523 222.347 107.427C222.083 108.625 221.645 108.824 220.636 108.758C218.443 108.758 210.439 108.58 208.553 108.58" fill="#E1251B"/>
<path d="M227.873 134.844C230.223 134.487 232.468 133.616 234.452 132.293C241.645 127.679 247.325 119.316 253.158 116.61C254.386 116.034 252.807 114.392 250.044 114.037C246.228 113.483 230.68 112.817 214.189 130.319C215.076 129.279 215.706 128.041 216.026 126.706C216.346 125.372 216.348 123.979 216.031 122.644C215.833 122.244 214.605 121.135 213.684 122.067C212.44 123.525 210.956 124.756 209.298 125.705C200.702 130.141 185.636 132.847 181.36 148.375C172.588 148.375 164.518 152.035 168.838 156.161C171.711 158.867 179.803 160.863 183.158 161.151C197.456 162.327 201.842 156.893 208.882 156.715C210.285 156.715 212.434 155.717 211.645 154.231C211.272 153.499 209.803 150.792 203.399 149.972C202.259 149.839 207.654 151.369 215.855 148.951C225.943 146.001 231.996 141.853 238.311 139.524C240.636 138.659 239.32 136.995 238.136 136.507C234.937 135.09 231.443 134.488 227.961 134.755" fill="#FFE897"/>
<path d="M219.408 134.888C221.032 132.724 222.995 130.844 225.219 129.32C229.492 126.126 234.131 123.467 239.035 121.401C239.847 121.069 240.197 120.381 239.035 120.669C234.265 122.336 229.736 124.641 225.57 127.524C222.438 129.75 219.594 132.366 217.105 135.31C214.534 135.98 212.018 136.855 209.583 137.927C226.886 117.409 245.066 114.947 249.693 115.745C250.175 115.745 250.307 116.078 250.285 116.211C250.263 116.344 250.285 116.566 249.561 116.921C243.553 119.893 235.57 132.204 222.566 134.356C221.523 134.454 220.49 134.632 219.474 134.888" fill="#8C734B"/>
<path d="M200.877 146.778C204.123 146.642 207.351 146.227 210.526 145.535C214.341 144.73 218.082 143.602 221.711 142.164C222.128 142.006 222.531 141.813 222.917 141.587C223.904 141.01 223.311 140.677 222.61 140.921L222.018 141.143C218.803 142.315 215.513 143.263 212.171 143.983C209.461 144.611 206.702 145.005 203.925 145.158C202.829 145.158 201.404 145.158 202.697 144.337C206.38 141.51 210.51 139.335 214.912 137.905C222.089 135.795 229.726 135.904 236.842 138.215C234.364 138.836 225.877 143.539 218.355 146.156C212.535 147.936 206.473 148.767 200.395 148.619C197.566 148.463 198.75 146.999 200.877 146.888" fill="#8C734B"/>
<path d="M188.224 146.6C195.216 142.683 201.748 137.98 207.697 132.581C208.772 131.516 208.311 131.406 207.982 131.627C207.776 131.734 207.584 131.869 207.412 132.027C200.187 137.819 192.415 142.879 184.211 147.132C181.798 148.441 183.487 146.046 184.013 145.314C186.797 141.415 190.224 138.031 194.145 135.31C202.281 129.786 206.667 129.786 210.482 127.391C211.382 126.836 212.456 126.104 213.246 125.527C214.035 124.951 214.474 125.527 214.013 126.614C211.15 133.225 206.536 138.906 200.68 143.029C193.004 148.042 188.816 147.465 187.829 147.465C186.842 147.465 187.61 146.911 188.224 146.556" fill="#8C734B"/>
<path d="M176.732 155.827C179.167 155.827 181.732 155.828 184.386 155.628C188.794 155.541 193.191 155.14 197.544 154.43C199.737 154.053 199.123 153.787 197.544 153.92C196.601 153.92 189.583 154.541 184.386 154.607C182.193 154.607 182.061 154.607 178.925 154.607C181.817 152.282 185.254 150.753 188.904 150.171C195.846 149.335 202.872 150.748 208.969 154.208C210.482 155.073 209.605 155.295 208.969 155.295C198.004 155.606 196.491 159.887 183.706 159.088C180.789 158.889 174.211 157.558 173.289 156.36C173.026 156.049 175.482 155.694 176.623 155.761" fill="#8C734B"/>
<path d="M147.347 153.72C151.732 149.595 153.531 145.824 163.421 143.872C171.425 142.275 174.912 144.848 187.325 142.94C193.026 142.053 191.272 144.692 189.671 146.866C186.715 149.255 183.569 151.392 180.263 153.255C175.54 155.461 170.455 156.77 165.263 157.114H164.123C167.414 158.292 170.534 159.911 173.399 161.928C173.64 162.127 173.925 162.349 174.123 162.549C174.455 162.854 174.723 163.224 174.912 163.636C175.439 164.789 175.702 166.83 172.719 167.007C172.061 167.007 162.654 168.161 161.382 168.338C160.305 168.769 159.104 168.752 158.04 168.291C156.976 167.83 156.136 166.962 155.702 165.876C152.193 159.488 146.447 155.495 146.447 154.364C146.757 154.185 147.044 153.969 147.303 153.72" fill="#FFE897"/>
<path d="M151.996 151.502C152.434 151.325 155.022 147.598 164.123 145.913C172.259 144.36 179.474 146.667 187.632 144.67C187.982 144.67 188.64 144.67 188.026 145.536C187.524 146.244 186.935 146.885 186.272 147.443C180.206 152.252 172.79 154.993 165.088 155.273C161.672 155.445 158.249 155.147 154.912 154.386C153.377 154.053 153.64 153.654 154.781 153.565C162.456 152.985 170.037 151.496 177.368 149.129C178.575 148.73 178.509 147.842 177.215 148.308C169.101 150.458 160.828 151.941 152.478 152.745C151.82 152.745 150.965 152.368 151.996 151.547" fill="#8C734B"/>
<path d="M150.11 156.36C153.006 158.709 155.446 161.582 157.303 164.834C158.531 166.874 159.496 166.786 161.162 166.564C162.39 166.364 163.925 166.209 164.386 166.076C166.338 165.654 163.86 164.257 163.553 163.991C161.362 162.33 159.069 160.811 156.689 159.444C155.132 158.601 155.768 158.534 156.689 158.867C159.648 160.191 162.482 161.788 165.153 163.636C166.192 164.608 167.487 165.255 168.882 165.499C169.737 165.499 172.083 165.233 172.719 165.189C174.145 165.189 173.377 164.39 172.544 163.725C165.989 159.002 158.287 156.172 150.263 155.54C149.912 155.54 149.649 155.961 150.263 156.36" fill="#8C734B"/>
<path d="M65.0658 134.223C62.7121 133.866 60.4654 132.987 58.4868 131.65C51.25 126.969 45.5702 118.562 39.7368 115.812C38.4868 115.235 40.0877 113.594 42.8289 113.261C46.6447 112.751 62.193 112.196 78.7281 129.831C77.8358 128.79 77.2029 127.548 76.8824 126.209C76.562 124.869 76.5632 123.472 76.886 122.134C77.0614 121.757 78.2895 120.625 79.0789 121.579C80.3439 123.028 81.8235 124.271 83.4649 125.261C92.0833 129.853 107.171 132.559 111.469 148.109C120.241 148.109 128.333 151.902 123.991 155.983C121.162 158.689 113.026 160.619 109.715 160.885C95.3947 161.95 91.0088 156.449 83.9693 156.449C82.5658 156.449 80.3289 155.273 81.2281 153.987C81.8421 153.144 83.2017 150.948 89.4298 149.75C90.5702 149.75 85.1754 151.125 76.9517 148.663C67.1053 145.491 61.0307 141.321 54.8245 138.925C52.4781 138.038 53.7719 136.419 54.9781 135.931C58.1833 134.537 61.675 133.951 65.1535 134.223" fill="#FFE897"/>
<path d="M73.5088 134.356C71.9026 132.131 69.9292 130.202 67.6755 128.655C63.4077 125.448 58.7861 122.753 53.9035 120.625C53.0483 120.293 52.7193 119.605 53.9035 119.893C58.6806 121.609 63.2148 123.951 67.3904 126.858C70.5608 129.096 73.435 131.735 75.943 134.711C78.4808 135.437 80.9531 136.379 83.3333 137.528C65.9869 116.877 47.807 114.304 43.2018 115.08C42.6974 115.08 42.5877 115.39 42.6097 115.524C42.6316 115.657 42.6097 115.878 43.3333 116.233C49.3421 119.25 57.3465 131.628 70.3728 133.979C71.4092 134.08 72.4359 134.266 73.443 134.533" fill="#8C734B"/>
<path d="M92.1052 146.401C88.8424 146.254 85.5988 145.816 82.4123 145.092C78.5739 144.274 74.8161 143.108 71.1842 141.609C70.7721 141.448 70.3694 141.262 69.978 141.055C69.0131 140.478 69.5833 140.145 70.307 140.367L70.8772 140.611C74.0944 141.815 77.3922 142.786 80.7456 143.517C83.4486 144.158 86.199 144.573 88.9693 144.759C90.0877 144.759 91.5131 144.759 90.2193 143.961C86.5515 141.135 82.436 138.96 78.0482 137.528C70.8628 135.277 63.1722 135.277 55.9868 137.528C58.4868 138.171 66.9517 142.94 74.5175 145.58C80.3595 147.399 86.4551 148.246 92.5658 148.086C95.3947 147.998 94.2982 146.401 92.1052 146.401Z" fill="#8C734B"/>
<path d="M104.715 146.4C97.7207 142.424 91.1825 137.678 85.2193 132.248C84.1448 131.161 84.6053 131.051 84.9342 131.272L85.5044 131.672C92.7193 137.515 100.474 142.64 108.662 146.977C111.097 148.308 109.408 145.89 108.86 145.158C106.082 141.258 102.68 137.855 98.7939 135.088C90.614 129.52 86.25 129.476 82.4342 127.058C81.5351 126.481 80.4605 125.749 79.6491 125.194C78.8377 124.64 78.443 125.194 78.9035 126.259C81.7815 132.904 86.4185 138.615 92.3026 142.763C99.9781 147.842 104.123 147.199 105.132 147.332C106.14 147.465 105.329 146.755 104.715 146.4Z" fill="#8C734B"/>
<path d="M116.228 155.606C113.794 155.606 111.228 155.473 108.575 155.362C104.164 155.239 99.7667 154.802 95.4167 154.053C93.2237 153.654 93.8158 153.41 95.4167 153.565C96.3596 153.565 103.377 154.231 108.575 154.319C110.768 154.319 110.899 154.319 114.035 154.319C111.131 152.001 107.688 150.474 104.035 149.883C97.1159 148.995 90.0967 150.354 83.9912 153.765C82.4781 154.63 83.3553 154.852 83.9912 154.874C94.7368 155.273 96.4912 159.709 109.145 158.867C112.061 158.711 118.662 157.425 119.605 156.227C119.846 155.916 117.412 155.561 116.25 155.606" fill="#8C734B"/>
<path d="M145.614 153.721C141.228 149.55 139.408 145.779 129.539 143.739C121.535 142.075 118.048 144.648 105.614 142.63C99.9123 141.698 101.667 144.36 103.289 146.556C106.234 149.004 109.39 151.179 112.719 153.055C117.438 155.317 122.532 156.671 127.741 157.048H128.838C125.559 158.267 122.449 159.907 119.583 161.928C119.335 162.118 119.101 162.325 118.882 162.549C118.547 162.844 118.278 163.207 118.092 163.614C117.566 164.789 117.303 166.808 120.285 167.007C120.943 167.007 130.351 168.25 131.645 168.427C132.708 168.808 133.875 168.76 134.904 168.294C135.933 167.827 136.745 166.977 137.171 165.921C140.921 159.044 146.403 155.606 146.403 154.475C146.088 154.295 145.794 154.079 145.526 153.831" fill="#FFE897"/>
<path d="M140.987 151.48C140.526 151.258 137.939 147.532 128.838 145.757C120.614 144.182 113.443 146.4 105.263 144.382C104.868 144.382 104.232 144.382 104.846 145.225C105.345 145.944 105.943 146.586 106.623 147.132C112.691 151.976 120.126 154.742 127.851 155.029C131.307 155.232 134.775 154.956 138.158 154.208C139.671 153.898 139.43 153.499 138.289 153.388C130.604 152.834 123.013 151.344 115.68 148.951C114.474 148.552 114.518 147.665 115.855 148.153C123.961 150.374 132.235 151.91 140.592 152.744C141.25 152.744 142.083 152.367 141.075 151.569" fill="#8C734B"/>
<path d="M142.851 156.338C139.976 158.671 137.552 161.521 135.702 164.745C134.452 166.786 133.509 166.697 131.864 166.453C130.614 166.253 129.057 166.076 128.618 165.965C126.667 165.499 129.123 164.102 129.452 163.858C131.638 162.246 133.915 160.764 136.272 159.421C137.851 158.623 137.237 158.556 136.272 158.867C133.311 160.15 130.483 161.725 127.829 163.569C126.792 164.527 125.506 165.165 124.123 165.411C123.246 165.411 120.877 165.1 120.285 165.078C118.838 165.078 119.627 164.257 120.439 163.614C126.984 158.912 134.688 156.133 142.697 155.584C143.026 155.584 143.311 156.005 142.697 156.405" fill="#8C734B"/>
<path d="M212.719 21.5609C211.625 19.9063 210.216 18.4887 208.575 17.3907C203.07 13.4201 194.101 10.603 189.496 5.78957C188.553 4.7692 188.092 7.56412 188.509 9.56049C189.342 13.5089 193.531 26.7514 213.465 34.9587C207.193 33.5613 205.636 35.602 205.241 36.0013C205.087 36.1582 204.973 36.3504 204.908 36.5615C204.843 36.7727 204.829 36.9967 204.868 37.2143C204.906 37.432 204.996 37.6371 205.13 37.8121C205.264 37.987 205.437 38.1268 205.636 38.2195C212.851 41.2584 221.36 54.8559 239.912 54.7893C243.531 58.5159 248.333 59.7802 249.057 56.0315C249.476 54.11 249.476 52.1191 249.057 50.1977C246.996 37.6649 237.785 32.0085 236.053 28.3929C235.68 27.5722 234.978 27.9714 234.671 28.3929C233.801 32.4659 233.929 36.6923 235.044 40.7038C233.819 36.5099 231.898 32.557 229.364 29.014C224.408 22.6034 217.478 19.3649 213.443 14.4849C212.851 13.7972 212.39 14.7954 212.259 15.5718C211.973 17.578 212.13 19.6235 212.719 21.5609Z" fill="#FFE897"/>
<path d="M215.263 28.5482C212.781 27.8731 210.435 26.7619 208.333 25.2652C204.133 22.5355 200.262 19.3196 196.798 15.6827C196.25 15.0394 195.526 14.9507 196.14 15.8601C199.193 19.5414 202.719 22.7938 206.623 25.5314C209.64 27.5968 212.905 29.2664 216.338 30.5002C217.754 32.5796 219.354 34.5248 221.118 36.3118C197.193 27.7496 190.329 13.7529 189.803 9.2943C189.803 8.78412 189.803 8.58448 190.044 8.54012C190.285 8.49576 190.373 8.42921 190.965 9.02812C195.855 13.9303 207.719 15.1947 213.816 25.9972C214.224 26.8885 214.708 27.742 215.263 28.5482Z" fill="#8C734B"/>
<path d="M231.908 41.1033C230.784 38.7555 229.432 36.5264 227.873 34.4487C226.04 31.8885 223.969 29.5116 221.689 27.3505C221.423 27.1071 221.144 26.8776 220.855 26.6629C220.132 26.1305 220 26.6629 220.417 27.1065L220.811 27.4836C222.729 29.4489 224.51 31.5464 226.14 33.7611C227.486 35.5162 228.655 37.4037 229.627 39.3953C230.022 40.1716 230.417 41.2807 229.386 40.5709C226.294 38.7883 223.485 36.545 221.053 33.9163C217.022 29.3413 214.493 23.6139 213.816 17.5239C215.11 19.1432 221.491 23.7792 225.921 28.4596C229.149 32.1112 231.691 36.3284 233.421 40.9036C234.211 43.1218 232.654 42.656 231.908 41.1033Z" fill="#8C734B"/>
<path d="M236.097 49.1997C229.89 45.0723 223.192 41.7557 216.162 39.3288C214.825 38.8852 214.912 39.3288 215.197 39.4619C215.382 39.5941 215.581 39.7057 215.789 39.7946C223.578 43.2396 231.042 47.3897 238.092 52.1943C240.154 53.6583 237.39 53.259 236.579 53.1259C232.17 52.4479 227.903 51.0389 223.947 48.9557C216.009 44.5194 214.123 41.303 210.57 39.1513C209.737 38.6412 208.684 38.0866 207.873 37.6208C207.061 37.155 207.456 36.6448 208.531 36.5561C215.314 36.2921 222.049 37.8211 228.07 40.9924C235.373 45.207 236.579 48.3346 237.061 49.111C237.544 49.8874 236.645 49.5103 236.097 49.111" fill="#8C734B"/>
<path d="M246.118 56.2533C245.564 53.9625 244.785 51.7333 243.794 49.5988C242.492 46.3303 240.937 43.1707 239.145 40.1493C238.246 38.6853 238.158 39.1511 238.706 40.2824C239.035 40.97 241.425 46.0497 242.829 49.8871C243.706 52.1053 244.057 53.3031 244.846 55.6766C245.307 57.4511 242.061 55.3217 240.855 53.2588C237.168 46.9012 235.328 39.6202 235.548 32.2525C235.548 30.8551 236.031 31.0104 236.228 31.4096C236.425 31.8089 242.807 38.7075 244.167 41.7464C246.109 45.4256 247.267 49.4759 247.566 53.6359C247.566 55.0777 247.303 56.2311 246.118 56.2311" fill="#8C734B"/>
<path d="M157.325 8.62879L153.07 30.0343C152.674 32.8589 153.356 35.73 154.978 38.0641C156.5 39.875 158.149 41.5727 159.912 43.1438C161.141 44.2904 162.251 45.5614 163.224 46.9369C163.618 47.6245 165.417 49.9758 165.417 49.9758C165.417 49.9758 167.61 48.9111 168.772 48.5561C170.482 47.9794 172.149 47.7576 173.487 47.3805C178.662 46.1161 183.487 45.1623 184.956 38.3303C185.746 34.8034 188.048 25.487 189.342 20.0524C189.497 18.9267 190.06 17.8992 190.921 17.1688C186.213 13.2675 180.648 10.5669 174.693 9.29424C169.035 7.69883 163.086 7.47089 157.325 8.62879Z" fill="white"/>
<path d="M160.373 9.60498L156.14 29.7461C156.14 29.7461 153.531 34.4043 156.579 36.9552C158.915 38.8948 160.994 41.1315 162.763 43.6098C163.956 45.1082 164.979 46.7377 165.811 48.4676C167.696 47.4698 169.701 46.7242 171.776 46.2494C176.031 45.1847 180.548 44.7632 182.105 38.5967C183.158 34.3156 186.908 19.2985 187.39 17.169C187.39 16.9472 187.39 16.8806 187.259 16.8141C183.364 14.6032 179.166 12.9886 174.803 12.0228C170.104 10.6706 165.256 9.92533 160.373 9.80462" fill="#DEDEDE"/>
<path d="M147.149 0.887379C153.522 1.02297 159.834 2.16814 165.855 4.2812L164.978 5.76739V28.4151C165.086 29.9813 164.787 31.549 164.11 32.9618C163.433 34.3745 162.401 35.5831 161.118 36.4671C159.189 38.5522 150.154 41.3471 147.325 44.4082C146.754 45.0293 145.789 43.1882 145.68 43.0551C145.57 42.922 142.741 40.726 141.513 39.9275C140.285 39.1289 139.035 38.286 137.851 37.7093C136.497 36.825 135.234 35.807 134.079 34.6704C132.193 33.0289 130.482 31.942 129.978 30.234C129.608 28.8348 129.388 27.3996 129.32 25.9529V3.77102C135.048 1.75288 141.084 0.776599 147.149 0.887379Z" fill="white"/>
<path d="M131.294 5.21288V25.9307C131.459 29.0609 132.727 32.0277 134.868 34.2933C137.741 36.7777 138.443 36.0457 141.447 37.798C143.716 39.159 145.734 40.9077 147.412 42.9664C148.944 41.4355 150.724 40.1824 152.675 39.2621C157.5 36.8442 162.675 35.5577 162.697 28.9031C162.697 23.9787 162.697 7.16489 162.697 5.21288C162.694 5.16459 162.679 5.11782 162.654 5.07631C162.63 5.03481 162.596 4.99972 162.555 4.97386C162.515 4.94799 162.469 4.93207 162.421 4.92735C162.373 4.92264 162.325 4.92926 162.281 4.9467C157.335 3.79469 152.268 3.25835 147.193 3.34961C141.951 3.26059 136.715 3.75151 131.579 4.81361C131.498 4.84232 131.429 4.89678 131.381 4.9688C131.334 5.04081 131.311 5.12647 131.316 5.21288" fill="#E1251B"/>
<path d="M129.386 3.61563C135.048 1.1635 141.153 -0.0674843 147.311 0.00126388C153.47 0.070012 159.547 1.43699 165.154 4.0149C159.304 2.64452 153.328 1.90103 147.325 1.79671C141.301 1.81566 135.293 2.42481 129.386 3.61563ZM165.943 4.28108V28.0157C165.943 39.5059 155.702 38.3081 147.434 44.4746C151.82 38.4633 164.035 38.5521 164.013 29.391V5.76727C164.013 4.23672 166.009 4.28108 166.009 4.28108M139.386 39.395C142.164 40.8913 144.832 42.5889 147.368 44.4746C145.322 42.0789 142.899 40.0405 140.197 38.4412L139.386 39.395ZM190.921 17.2131L185.833 38.1306C183.268 49.2215 175.088 46.5819 165.329 50.0645C170.132 45.9608 181.601 47.8463 183.64 38.9735C184.079 37.0437 188.553 18.544 188.553 18.544C188.573 18.2732 188.66 18.0117 188.804 17.783C188.949 17.5544 189.148 17.3656 189.383 17.2337C189.617 17.1018 189.881 17.0309 190.149 17.0273C190.418 17.0237 190.683 17.0875 190.921 17.2131ZM156.382 40.615C159.522 43.5924 162.508 46.7316 165.329 50.0201C163.491 46.1774 160.911 42.7458 157.741 39.9273L156.382 40.615Z" fill="#8C734B"/>
<path d="M179.408 9.7822C187.763 12.444 189.89 16.4368 189.89 16.4368C186.155 14.0126 182.072 12.1869 177.785 11.0244C174.171 10.0903 170.511 9.34984 166.82 8.8062C171.014 8.03591 175.334 8.40328 179.342 9.87092" fill="#8C734B"/>
<path d="M161.886 16.5254C159.364 16.1927 158.882 13.6418 159.364 13.3091C159.846 12.9763 161.754 12.4218 161.754 11.0909C161.754 9.75995 159.342 9.11668 155.175 9.22759C150.395 9.22759 148.596 8.82831 148.596 7.54176C148.596 6.25522 150.088 6.45485 151.996 6.96504C152.675 9.29413 156.031 8.65086 157.325 6.96504C157.522 6.65449 157.522 6.45485 157.325 6.56576C156.405 6.78881 155.449 6.81901 154.518 6.65449C153.026 6.65449 151.206 5.83376 149.605 5.7894C148.004 5.74503 147.719 6.41049 147.763 7.67486C147.763 9.44941 150.219 9.89304 153.048 9.89304C157.566 9.89304 160.373 10.0483 160.548 11.1574C160.548 11.8229 159.496 12.7767 156.294 12.7767C153.092 12.7767 150.592 10.2036 147.39 10.2036C146.221 10.2829 145.078 10.5985 144.031 11.1319C142.984 11.6653 142.053 12.4056 141.294 13.3091C139.805 11.775 137.908 10.7116 135.833 10.248C134.145 10.4476 133.794 11.6454 134.167 12.6658C134.774 12.2763 135.49 12.0972 136.206 12.1556C136.961 12.1889 137.684 12.4692 138.268 12.9541C138.782 13.6519 139.141 14.454 139.32 15.3054C139.531 15.7169 139.844 16.0659 140.229 16.3186C140.613 16.5713 141.056 16.719 141.513 16.7472C140.619 17.2947 139.556 17.4846 138.531 17.2796C137.85 16.9333 137.1 16.7511 136.338 16.7472C134.89 16.7472 133.991 17.7676 134.825 18.9654C136.206 18.2112 136.513 18.6105 137.303 19.1872C139.354 18.6996 141.51 18.9752 143.377 19.9636C143.509 19.9636 143.662 19.8305 143.64 19.6752C142.982 16.1927 147.412 16.0374 147.566 13.6418C147.566 13.42 147.785 13.3312 147.807 13.6418C148.07 16.2814 146.579 15.86 145.768 17.0578C149.123 17.7454 150.855 13.1316 155.482 14.8618C155.987 16.5698 156.623 16.6141 158.706 17.08C159.167 17.08 159.276 17.08 159.276 17.3018C159.408 18.3665 158.662 18.8989 157.083 18.5883C156.118 18.4331 155.482 19.5422 156.096 20.6069C157.434 20.4237 158.794 20.5296 160.088 20.9174C160.148 20.2925 160.388 19.699 160.777 19.2103C161.167 18.7215 161.69 18.3588 162.281 18.1669C162.083 17.6417 161.972 17.0871 161.952 16.5254M137.281 8.87268C137.281 8.27377 137.895 7.91886 138.531 7.56395C138.373 7.48145 138.237 7.36212 138.134 7.21585C138.031 7.06958 137.963 6.90057 137.938 6.7228C137.912 6.54503 137.928 6.36363 137.986 6.1936C138.043 6.02357 138.14 5.8698 138.268 5.74503C138.399 5.58976 138.421 5.52321 138.553 5.74503C138.841 6.14973 139.247 6.45241 139.715 6.61013C140.224 6.35425 140.786 6.2248 141.354 6.23252C141.922 6.24023 142.48 6.38489 142.982 6.65449C143.503 6.57387 143.978 6.30614 144.32 5.90031C144.518 5.72285 144.649 5.90031 144.759 5.90031C144.837 6.06966 144.88 6.25357 144.884 6.44044C144.889 6.62732 144.855 6.81311 144.785 6.98609C144.715 7.15907 144.61 7.31549 144.477 7.44549C144.344 7.57548 144.186 7.67624 144.013 7.7414C144.227 7.87088 144.405 8.05239 144.531 8.26937C144.658 8.48635 144.728 8.73188 144.737 8.98359C144.768 9.35242 144.669 9.72051 144.455 10.0215C144.242 10.3225 143.93 10.5365 143.575 10.625L142.281 11.5345C141.858 11.9017 141.354 12.1604 140.811 12.2887C140.617 12.2871 140.425 12.2379 140.253 12.1452C140.081 12.0525 139.934 11.9191 139.825 11.7563C139.515 11.3344 139.251 10.8809 139.035 10.4032C138.614 10.377 138.214 10.2103 137.896 9.9294C137.579 9.64847 137.362 9.26906 137.281 8.85049" fill="white"/>
<path d="M160.636 31.7204C158.202 31.0549 157.895 29.0142 158.355 28.8367C158.816 28.6593 160.548 27.9938 160.548 26.6185C160.548 25.2433 158.355 24.7996 154.539 24.844C150.154 24.9549 148.443 24.5112 148.421 23.2469C148.399 21.9825 149.803 22.2487 151.557 22.7367C152.149 24.9549 155.263 24.3338 156.447 22.7367C156.645 22.4483 156.645 22.2487 156.447 22.3596C155.642 22.5895 154.799 22.6499 153.969 22.5371C152.61 22.5371 151.096 21.7607 149.583 21.7385C148.07 21.7163 147.654 22.3152 147.697 23.4687C147.697 25.1767 149.89 25.6869 152.522 25.6869C156.667 25.6869 159.276 25.82 159.408 26.8625C159.408 27.5058 158.443 28.3931 155.526 28.3931C152.61 28.3931 150.285 25.9087 147.346 25.9087C146.262 25.9809 145.204 26.2781 144.238 26.7818C143.272 27.2856 142.419 27.9851 141.732 28.8367C140.382 27.3946 138.644 26.3843 136.732 25.9309C136.469 25.9283 136.209 25.9907 135.974 26.1127C135.74 26.2346 135.538 26.4125 135.387 26.631C135.236 26.8494 135.14 27.1018 135.107 27.3663C135.074 27.6308 135.105 27.8995 135.197 28.1491C135.754 27.6938 136.435 27.4228 137.149 27.3727C137.492 27.3925 137.828 27.4811 138.136 27.6334C138.445 27.7858 138.721 27.9988 138.947 28.26C139.59 28.8367 140.016 29.6203 140.154 30.4782C140.202 30.8642 140.39 31.2184 140.682 31.4723C140.974 31.7263 141.348 31.8621 141.732 31.8534C141.389 32.1175 140.996 32.3087 140.578 32.4154C140.16 32.5221 139.724 32.5422 139.298 32.4745C138.685 32.141 137.999 31.9657 137.303 31.9644C135.965 31.9644 135.11 32.9182 135.921 34.0495C137.171 33.3396 137.456 33.6945 138.114 34.2269C139.935 33.7255 141.875 33.9067 143.575 34.7371C143.575 34.7371 143.794 34.6262 143.772 34.4709C143.202 31.188 147.259 31.2102 147.412 28.9254C147.412 28.748 147.61 28.6593 147.632 28.9254C147.873 31.4098 146.513 31.1436 145.746 32.164C148.904 32.8516 150.439 28.5705 154.671 30.2342C155.154 31.8091 155.768 32.2305 157.697 32.4524C158.114 32.4524 158.158 32.3193 158.202 32.4524C158.202 33.4505 157.588 33.9385 156.009 33.6724C155.132 33.5171 154.539 34.5596 155.11 35.5578C156.393 35.3949 157.695 35.4777 158.947 35.8018C159.01 35.2131 159.247 34.657 159.626 34.206C160.005 33.755 160.51 33.43 161.075 33.2731C160.764 32.8097 160.61 32.2572 160.636 31.6982M138.509 24.6222C138.473 24.3478 138.521 24.0689 138.646 23.823C138.772 23.5771 138.969 23.376 139.211 23.2469C139.067 23.1651 138.944 23.051 138.85 22.9134C138.757 22.7757 138.697 22.6182 138.673 22.4531C138.65 22.2879 138.665 22.1196 138.716 21.9611C138.767 21.8025 138.854 21.6581 138.969 21.5389C139.079 21.3836 139.101 21.3392 139.211 21.5389C139.478 21.9114 139.854 22.1905 140.285 22.3374C140.747 22.087 141.263 21.9559 141.787 21.9559C142.311 21.9559 142.827 22.087 143.289 22.3374C143.772 22.2645 144.21 22.0112 144.518 21.6276C144.715 21.4502 144.846 21.4945 144.912 21.6276C144.986 21.7876 145.027 21.9608 145.033 22.137C145.04 22.3132 145.011 22.489 144.95 22.6541C144.889 22.8192 144.796 22.9703 144.677 23.0987C144.557 23.2272 144.414 23.3303 144.254 23.4022C144.445 23.5279 144.602 23.6986 144.713 23.8995C144.824 24.1005 144.885 24.3256 144.89 24.5556C144.887 24.9229 144.759 25.2779 144.527 25.5607C144.296 25.8435 143.975 26.0369 143.618 26.1083L142.632 26.9956C142.412 27.2396 141.535 28.0825 141.228 28.0825C140.921 28.0825 140.68 27.4614 140.417 27.1953L139.671 25.9309C138.947 25.6647 138.487 25.2876 138.509 24.5778" fill="white"/>
<path d="M161.075 15.8822C158.443 15.1724 158.224 12.9542 158.75 12.7102C159.276 12.4662 161.162 11.8229 161.162 10.492C161.162 9.16108 158.706 8.53999 154.583 8.60653C149.825 8.60653 148.004 8.25162 148.004 6.92071C148.004 5.5898 149.496 5.85598 151.382 6.36616C152.061 8.58435 155.439 8.07417 156.711 6.36616C156.93 6.05562 156.908 5.87816 156.711 5.98907C155.826 6.23652 154.902 6.30437 153.991 6.18871C152.522 6.05562 151.316 5.43453 149.605 5.39016C147.895 5.3458 147.061 5.92253 147.127 7.16471C147.237 8.96144 149.561 9.3829 152.39 9.3829C156.908 9.3829 159.737 9.53817 159.89 10.6473C159.89 11.3127 158.838 12.2665 155.658 12.2665C152.478 12.2665 149.956 9.64908 146.732 9.64908C145.563 9.73683 144.423 10.0608 143.38 10.6018C142.336 11.1428 141.411 11.8899 140.658 12.7989C139.167 11.2639 137.272 10.1938 135.197 9.71563C133.509 9.91526 133.158 11.1131 133.531 12.1334C134.172 11.6628 134.933 11.3859 135.724 11.3349C136.47 11.394 137.166 11.7344 137.675 12.2887C138.367 12.8975 138.831 13.7273 138.991 14.64C139.126 15.0894 139.398 15.484 139.768 15.7671C140.139 16.0501 140.588 16.2069 141.053 16.2149C140.155 16.7526 139.098 16.9492 138.07 16.7695C137.393 16.4135 136.64 16.2307 135.877 16.2371C134.43 16.2371 133.553 17.2353 134.386 18.4553C135.746 17.7011 136.053 18.1004 136.864 18.6771C138.836 18.1452 140.93 18.3256 142.785 19.1873C142.939 19.1873 143.048 19.0764 143.026 18.9211C142.347 15.2611 146.754 15.2833 146.93 12.8876C146.93 12.688 147.127 12.5771 147.171 12.8876C147.412 15.5273 145.899 15.1058 145.132 16.3036C148.531 17.0356 150.219 12.5105 154.825 14.2629C155.329 15.9709 155.987 16.0153 158.07 16.4811C158.509 16.4811 158.64 16.4811 158.662 16.7029C158.662 17.7898 158.026 18.3 156.316 18.0116C155.373 17.8342 154.737 18.9433 155.351 20.008C156.677 19.6825 158.06 19.6825 159.386 20.008C159.417 19.4341 159.627 18.8848 159.986 18.4387C160.344 17.9926 160.833 17.6723 161.382 17.5236C161.186 17.0055 161.075 16.4586 161.053 15.9044M141.316 9.53817C141.083 9.36425 140.895 9.13596 140.768 8.87272C140.741 8.84383 140.709 8.82081 140.673 8.80506C140.637 8.78932 140.598 8.7812 140.559 8.7812C140.52 8.7812 140.481 8.78932 140.446 8.80506C140.41 8.82081 140.378 8.84383 140.351 8.87272C140.14 9.12209 139.888 9.33228 139.605 9.49381C139.605 9.49381 139.605 9.6269 139.825 9.6269H141.338C141.535 9.6269 141.469 9.47163 141.469 9.47163M138.772 7.09817C139.539 7.09817 140.285 7.51962 139.803 8.69526C139.627 8.49562 139.386 8.36253 139.408 8.11853C138.925 8.11853 138.75 7.80799 138.772 7.09817ZM142.325 7.09817C142.325 7.80799 142.105 8.0298 141.623 8.0298C141.623 8.2738 141.404 8.47344 141.228 8.6509C140.811 7.45308 141.579 6.98726 142.325 7.09817ZM137.149 8.18508C137.121 7.89745 137.177 7.60787 137.31 7.35178C137.442 7.0957 137.645 6.88423 137.895 6.74326C137.742 6.65291 137.611 6.52838 137.513 6.37919C137.415 6.22999 137.352 6.06008 137.329 5.88244C137.305 5.7048 137.322 5.52413 137.379 5.35423C137.435 5.18433 137.529 5.0297 137.654 4.90216C137.654 4.74689 137.829 4.70252 137.939 4.90216C138.232 5.30174 138.637 5.60311 139.101 5.76725C139.602 5.5047 140.159 5.36767 140.724 5.36767C141.288 5.36767 141.845 5.5047 142.347 5.76725C142.875 5.69174 143.359 5.42356 143.706 5.01307C143.904 4.83562 143.991 4.8578 144.079 5.01307C144.162 5.18371 144.209 5.36983 144.217 5.5597C144.225 5.74957 144.194 5.93906 144.126 6.11622C144.058 6.29338 143.954 6.45436 143.821 6.589C143.689 6.72365 143.53 6.82904 143.355 6.89853C143.57 7.02836 143.751 7.20943 143.881 7.42595C144.011 7.64246 144.086 7.88785 144.101 8.14071C144.101 8.85053 143.684 9.31635 142.719 9.58254L141.645 10.7138C141.344 11.0036 140.96 11.1899 140.548 11.2462C140.13 11.1951 139.743 10.9992 139.452 10.6916L138.421 9.58254C137.61 9.27199 137.149 8.8949 137.149 8.14071" fill="#8C734B"/>
<path d="M160.088 31.0546C157.654 30.4113 157.5 28.3262 157.895 28.1044C158.289 27.8826 160.088 27.2615 160.088 25.8862C160.088 24.5109 157.895 24.0451 154.079 24.1338C149.693 24.1338 147.982 23.7789 147.982 22.5146C147.982 21.2502 149.364 21.5164 151.096 22.0044C151.689 24.2226 154.825 23.6015 155.987 22.0044C156.206 21.6938 156.162 21.5164 155.987 21.6273C155.179 21.8419 154.339 21.9021 153.509 21.8048C152.149 21.8048 151.053 21.1171 149.605 21.0949C148.158 21.0727 147.237 21.5829 147.412 22.7586C147.412 24.4444 149.605 24.9768 152.259 24.9768C156.404 24.9768 158.991 25.132 159.123 26.1746C159.123 26.7957 158.18 27.7051 155.241 27.6829C152.303 27.6608 149.803 25.132 146.93 25.132C145.84 25.2124 144.779 25.52 143.813 26.0353C142.847 26.5507 141.997 27.2627 141.316 28.1266C139.96 26.6695 138.203 25.6573 136.272 25.2208C136.01 25.2201 135.752 25.2844 135.521 25.4079C135.289 25.5315 135.091 25.7106 134.944 25.9295C134.797 26.1484 134.705 26.4005 134.677 26.6636C134.648 26.9268 134.684 27.193 134.781 27.4389C135.333 26.9946 136.006 26.7315 136.711 26.6848C137.171 26.6848 137.566 26.6848 138.531 27.572C139.16 28.1595 139.583 28.9381 139.737 29.7902C139.78 30.1744 139.964 30.5283 140.252 30.7827C140.54 31.037 140.912 31.1735 141.294 31.1655C140.602 31.6864 139.735 31.9096 138.882 31.7866C138.259 31.4554 137.567 31.2804 136.864 31.2764C135.526 31.2764 134.671 32.2302 135.482 33.3393C136.754 32.6073 137.018 33.0066 137.675 33.539C139.488 33.0245 141.425 33.2062 143.114 34.0491C143.246 34.0491 143.377 33.9161 143.333 33.7608C142.785 30.5444 146.93 30.5888 146.93 28.3262C146.93 28.1488 147.127 28.0379 147.127 28.3262C147.346 30.8106 146.031 30.5444 145.263 31.5426C148.399 32.2302 149.956 27.9713 154.189 29.6128C154.649 31.2099 155.219 31.2986 157.171 31.6979C157.566 31.6979 157.675 31.6979 157.697 31.9197C157.697 32.9179 157.105 33.3837 155.504 33.1175C154.649 32.9622 154.079 34.0048 154.627 35.003C155.859 34.7237 157.141 34.7619 158.355 35.1139C158.371 34.5744 158.556 34.0539 158.883 33.6274C159.21 33.2009 159.663 32.8904 160.175 32.7404C160.04 32.1893 160.01 31.617 160.088 31.0546ZM142.061 25.0877C141.818 24.9527 141.607 24.763 141.447 24.5331C141.394 24.4816 141.324 24.4528 141.25 24.4528C141.176 24.4528 141.106 24.4816 141.053 24.5331C140.867 24.7702 140.636 24.9665 140.373 25.1098C140.373 25.1098 140.373 25.2651 140.548 25.2651H141.952C142.127 25.2651 141.952 25.132 141.952 25.132M139.496 22.9138C140.197 22.9138 140.899 23.3353 140.461 24.4222C140.285 24.2669 140.066 24.1117 140.066 23.8898C139.649 23.8898 139.474 23.6015 139.496 22.9138ZM142.763 22.9138C142.763 23.6237 142.566 23.8011 142.127 23.8011C142.127 24.0451 141.93 24.2226 141.732 24.3778C141.36 23.2688 142.061 22.8029 142.763 22.9138ZM138.004 23.9564C137.977 23.6831 138.029 23.4076 138.154 23.1635C138.278 22.9194 138.47 22.7171 138.706 22.5811C138.562 22.4969 138.439 22.3806 138.345 22.241C138.252 22.1014 138.192 21.9422 138.169 21.7755C138.145 21.6087 138.16 21.4388 138.211 21.2786C138.263 21.1184 138.349 20.9722 138.465 20.8509C138.596 20.7178 138.596 20.6735 138.728 20.8509C138.996 21.2235 139.371 21.5026 139.803 21.6495C140.262 21.4047 140.774 21.2768 141.294 21.2768C141.813 21.2768 142.325 21.4047 142.785 21.6495C143.27 21.5795 143.714 21.3354 144.035 20.9618C144.211 20.7622 144.298 20.7844 144.364 20.9618C144.443 21.1191 144.489 21.2915 144.499 21.4678C144.508 21.6441 144.481 21.8205 144.419 21.9856C144.357 22.1507 144.262 22.3008 144.139 22.4263C144.016 22.5518 143.869 22.6499 143.706 22.7142C143.908 22.8386 144.077 23.0105 144.199 23.2151C144.321 23.4198 144.393 23.6512 144.408 23.8898C144.408 24.5553 144.013 24.9989 143.136 25.2651L142.149 26.3299C141.865 26.6029 141.506 26.781 141.118 26.84C140.738 26.7808 140.385 26.6024 140.11 26.3299L139.189 25.2651C138.443 24.9768 138.004 24.6218 138.004 23.912" fill="#8C734B"/>
<path d="M102.237 16.925L103.64 18.0784L109.846 39.1068C110.24 40.2905 110.884 41.3736 111.732 42.2812C112.58 43.1889 113.613 43.8995 114.759 44.364C117.207 45.3419 119.774 45.9835 122.39 46.2716C124.057 46.569 125.679 47.0835 127.215 47.8021C127.8 47.999 128.372 48.2362 128.925 48.512C129.211 47.9131 129.868 47.3363 130.461 46.2938C131.233 45.3348 132.1 44.4577 133.048 43.6763C136.447 40.2825 142.939 37.0218 140.285 28.149C138.64 23.2024 135.482 7.45333 135.482 7.45333C135.482 7.45333 129.035 5.96714 118.114 8.89515C112.328 10.3472 106.915 13.0319 102.237 16.7697" fill="white"/>
<path d="M102.895 16.3924C106.893 12.5317 111.824 9.80092 117.193 8.47347C122.686 6.93102 128.437 6.56088 134.079 7.38656C128.687 7.50233 123.334 8.33767 118.158 9.87093C112.832 11.5019 107.687 13.6875 102.807 16.3924M135.395 7.51965L141.162 28.8364C144.123 39.9274 135.373 39.9274 128.904 48.6448C131.097 42.2121 142.061 39.5281 139.627 30.6553C139.101 28.7033 134.079 9.71566 134.079 9.71566C133.966 9.48436 133.916 9.22706 133.933 8.96978C133.95 8.71251 134.034 8.46439 134.177 8.25054C134.319 8.03668 134.515 7.86467 134.744 7.75191C134.974 7.63915 135.228 7.58963 135.482 7.60838M102.259 16.9469L108.311 37.3321C111.645 48.423 118.882 44.6743 128.925 48.6226C123.706 44.3194 113.421 47.447 110.461 38.1972C109.868 36.2673 104.934 18.2335 104.934 18.2335C104.864 17.955 104.736 17.6949 104.558 17.4706C104.381 17.2463 104.158 17.0629 103.905 16.9327C103.651 16.8025 103.373 16.7285 103.09 16.7156C102.806 16.7028 102.523 16.7514 102.259 16.8582" fill="#8C734B"/>
<path d="M106.118 17.3021C106.118 17.5017 111.667 37.421 111.667 37.421C113.575 43.9425 120.439 44.2752 123.487 45.1625C125.276 45.6796 126.993 46.425 128.596 47.3807C129.333 45.8197 130.344 44.4068 131.579 43.2105C134.211 40.4156 139.956 37.2658 138.158 31.1436C136.996 27.0177 133.158 12.0228 132.456 9.33879C132.434 9.19958 132.361 9.07394 132.251 8.98742C132.141 8.9009 132.003 8.85997 131.864 8.87297C127.469 9.03826 123.119 9.83748 118.947 11.2464C114.499 12.3689 110.257 14.2036 106.382 16.681C106.281 16.7514 106.203 16.8494 106.157 16.9635C106.11 17.0776 106.097 17.2028 106.118 17.3243" fill="#FFD618"/>
<path d="M142.325 7.20922C142.325 7.91904 142.105 8.14086 141.623 8.14086C141.623 8.38486 141.404 8.5845 141.228 8.76195C140.811 7.56413 141.579 7.09831 142.325 7.20922Z" fill="#E1251B"/>
<path d="M138.772 7.09814C139.539 7.09814 140.285 7.5196 139.803 8.69524C139.627 8.4956 139.386 8.36251 139.43 8.11851C138.925 8.11851 138.75 7.80796 138.772 7.09814Z" fill="#E1251B"/>
<path d="M141.447 9.51636C141.169 9.36601 140.934 9.14415 140.768 8.87309C140.743 8.84086 140.711 8.81477 140.675 8.79682C140.639 8.77887 140.599 8.76953 140.559 8.76953C140.519 8.76953 140.479 8.77887 140.443 8.79682C140.407 8.81477 140.375 8.84086 140.351 8.87309C140.134 9.10969 139.882 9.31163 139.605 9.472C139.605 9.472 139.605 9.60509 139.825 9.60509H141.338C141.535 9.60509 141.469 9.44982 141.469 9.44982" fill="#E1251B"/>
<path d="M142.763 22.9583C142.763 23.6681 142.566 23.8456 142.127 23.8456C142.127 24.0896 141.93 24.2671 141.732 24.4223C141.36 23.3132 142.061 22.8474 142.763 22.9583Z" fill="#E1251B"/>
<path d="M139.496 22.8477C140.197 22.8477 140.899 23.2691 140.461 24.356C140.285 24.2007 140.066 24.0455 140.066 23.8237C139.649 23.8237 139.474 23.5353 139.496 22.8477Z" fill="#E1251B"/>
<path d="M141.952 25.1544C141.708 25.0194 141.498 24.8297 141.338 24.5998C141.285 24.5483 141.214 24.5195 141.14 24.5195C141.067 24.5195 140.996 24.5483 140.943 24.5998C140.758 24.8369 140.526 25.0332 140.263 25.1765C140.263 25.1765 140.263 25.3318 140.439 25.3318H141.842C142.018 25.3318 141.842 25.1987 141.842 25.1987" fill="#E1251B"/>
<path d="M173.092 18.1449L172.675 17.7456C172.325 18.4998 171.93 20.8954 170.965 23.0249C170.448 24.2795 169.817 25.4825 169.079 26.6184C169.079 26.6184 169.671 26.8845 170.373 28.2154C171.089 27.7827 171.907 27.5529 172.741 27.55C172.528 26.1487 172.448 24.73 172.5 23.3133C172.632 21.45 173.092 18.1449 173.092 18.1449Z" fill="white"/>
<path d="M168.487 17.3022C168.548 17.0729 168.653 16.8581 168.796 16.6702C168.94 16.4823 169.119 16.325 169.323 16.2075C169.527 16.0899 169.752 16.0144 169.984 15.9852C170.217 15.9561 170.454 15.974 170.68 16.0378C170.904 16.0777 171.118 16.1625 171.31 16.2873C171.501 16.412 171.666 16.5742 171.795 16.7643C171.924 16.9544 172.013 17.1685 172.059 17.3942C172.105 17.6199 172.106 17.8526 172.061 18.0785C171.938 18.5425 171.638 18.9382 171.227 19.1792C170.816 19.4202 170.328 19.4871 169.868 19.3651C169.644 19.3228 169.43 19.2354 169.239 19.1081C169.049 18.9808 168.885 18.8162 168.758 18.6239C168.631 18.4316 168.544 18.2156 168.501 17.9886C168.458 17.7616 168.461 17.5282 168.509 17.3022" fill="white"/>
<path d="M173.816 18.3225C173.944 17.8627 174.246 17.4723 174.656 17.2358C175.066 16.9992 175.552 16.9354 176.009 17.0582C176.232 17.0999 176.445 17.1874 176.634 17.3153C176.823 17.4432 176.984 17.6089 177.107 17.8021C177.23 17.9954 177.313 18.2121 177.351 18.4389C177.388 18.6657 177.379 18.8979 177.325 19.1211C177.266 19.352 177.163 19.5686 177.02 19.7581C176.877 19.9476 176.698 20.1061 176.493 20.2241C176.289 20.3421 176.063 20.4172 175.829 20.4449C175.595 20.4726 175.358 20.4524 175.132 20.3855C174.908 20.3404 174.696 20.2513 174.507 20.1232C174.318 19.9951 174.155 19.8306 174.029 19.639C173.903 19.4474 173.815 19.2325 173.771 19.0067C173.727 18.7808 173.727 18.5483 173.772 18.3225" fill="white"/>
<path d="M171.776 14.9062C171.837 14.6769 171.942 14.4621 172.086 14.2742C172.229 14.0863 172.408 13.929 172.612 13.8115C172.816 13.6939 173.041 13.6184 173.274 13.5892C173.507 13.5601 173.743 13.578 173.969 13.6418C174.194 13.6841 174.408 13.7715 174.599 13.8988C174.789 14.0261 174.953 14.1908 175.08 14.3831C175.206 14.5753 175.294 14.7914 175.336 15.0184C175.379 15.2454 175.377 15.4787 175.329 15.7047C175.201 16.1646 174.899 16.5549 174.489 16.7915C174.078 17.0281 173.592 17.0919 173.136 16.9691C172.912 16.9271 172.699 16.8396 172.509 16.712C172.319 16.5844 172.157 16.4192 172.032 16.2265C171.907 16.0337 171.822 15.8174 171.782 15.5905C171.741 15.3636 171.747 15.1308 171.798 14.9062" fill="white"/>
<path d="M172.697 17.7456C172.697 17.7456 171.82 19.6089 170.504 22.67C169.979 23.9629 169.348 25.2094 168.618 26.3965C169.193 26.742 169.646 27.262 169.912 27.8827C170.634 27.482 171.437 27.2544 172.259 27.2173C172.046 25.8159 171.973 24.3966 172.039 22.9805C172.193 21.1172 172.763 17.7456 172.763 17.7456" fill="#1D1D1B"/>
<path d="M167.96 16.8584C168.094 16.4017 168.396 16.0149 168.805 15.7792C169.214 15.5435 169.697 15.4771 170.153 15.594C170.385 15.6378 170.606 15.7297 170.801 15.8639C170.996 15.9981 171.162 16.1717 171.288 16.3738C171.413 16.5759 171.496 16.8021 171.531 17.0382C171.566 17.2743 171.553 17.5151 171.491 17.7456C171.367 18.2105 171.069 18.6078 170.659 18.8524C170.249 19.097 169.76 19.1695 169.298 19.0544C168.846 18.9582 168.449 18.6852 168.194 18.2948C167.94 17.9043 167.848 17.4279 167.939 16.9693" fill="#1D1D1B"/>
<path d="M173.246 17.9008C173.369 17.4369 173.669 17.0412 174.08 16.8002C174.491 16.5591 174.979 16.4923 175.439 16.6143C175.665 16.654 175.882 16.7395 176.075 16.8657C176.268 16.9919 176.434 17.1562 176.563 17.3487C176.692 17.5413 176.781 17.7582 176.825 17.9865C176.87 18.2147 176.868 18.4496 176.82 18.6772C176.682 19.1318 176.38 19.517 175.973 19.7556C175.567 19.9942 175.086 20.0685 174.627 19.9638C174.402 19.9212 174.187 19.834 173.996 19.707C173.804 19.58 173.639 19.4158 173.511 19.2239C173.382 19.0321 173.293 18.8164 173.247 18.5893C173.202 18.3621 173.201 18.1282 173.246 17.9008Z" fill="#1D1D1B"/>
<path d="M171.25 14.4628C171.383 14.0062 171.686 13.6194 172.095 13.3837C172.504 13.1479 172.987 13.0816 173.443 13.1985C173.667 13.2405 173.88 13.3279 174.07 13.4556C174.26 13.5832 174.422 13.7484 174.547 13.9411C174.672 14.1338 174.757 14.3502 174.797 14.5771C174.838 14.804 174.832 15.0368 174.781 15.2614C174.652 15.7221 174.351 16.1142 173.942 16.3543C173.533 16.5945 173.047 16.664 172.588 16.5479C172.364 16.5005 172.152 16.4089 171.964 16.2782C171.775 16.1476 171.614 15.9806 171.49 15.7868C171.366 15.593 171.281 15.3763 171.239 15.1491C171.198 14.9219 171.202 14.6886 171.25 14.4628Z" fill="#1D1D1B"/>
<path d="M179.825 27.0618L179.518 26.6182C179.167 27.3723 178.75 29.768 177.807 31.8974C176.425 34.9142 175.614 35.2025 175.614 35.2025C176.265 35.7124 176.785 36.3747 177.127 37.1324C177.863 36.7649 178.657 36.532 179.474 36.4447C179.273 35.0496 179.192 33.6394 179.232 32.2302C179.386 30.3447 179.825 27.0396 179.825 27.0396" fill="white"/>
<path d="M175.439 26.2411C175.576 25.7865 175.879 25.4013 176.286 25.1627C176.692 24.9241 177.173 24.8498 177.632 24.9546C178.08 25.0557 178.471 25.3307 178.722 25.7206C178.972 26.1105 179.061 26.5841 178.969 27.0397C178.836 27.4973 178.534 27.8858 178.126 28.1252C177.718 28.3646 177.235 28.4365 176.776 28.3262C176.551 28.2813 176.336 28.1915 176.146 28.0619C175.955 27.9324 175.791 27.7657 175.665 27.5717C175.538 27.3776 175.451 27.1601 175.408 26.9316C175.366 26.7032 175.369 26.4685 175.417 26.2411" fill="white"/>
<path d="M180.658 27.2617C180.719 27.0324 180.824 26.8176 180.968 26.6297C181.111 26.4418 181.29 26.2845 181.494 26.1669C181.698 26.0494 181.923 25.9738 182.156 25.9447C182.388 25.9156 182.625 25.9335 182.851 25.9973C183.075 26.0369 183.288 26.1218 183.479 26.2469C183.669 26.372 183.833 26.5346 183.96 26.7252C184.087 26.9157 184.174 27.1302 184.217 27.3557C184.261 27.5813 184.258 27.8134 184.211 28.038C184.082 28.4988 183.781 28.8908 183.372 29.131C182.962 29.3711 182.477 29.4406 182.018 29.3246C181.795 29.2797 181.583 29.1905 181.395 29.0621C181.207 28.9337 181.046 28.7687 180.921 28.5766C180.797 28.3846 180.711 28.1695 180.67 27.9437C180.628 27.7179 180.632 27.4861 180.68 27.2617" fill="white"/>
<path d="M178.597 23.8457C178.73 23.389 179.032 23.0022 179.441 22.7665C179.85 22.5308 180.333 22.4644 180.789 22.5813C181.012 22.6238 181.224 22.7104 181.413 22.8363C181.602 22.9622 181.764 23.1247 181.891 23.3145C182.017 23.5043 182.105 23.7176 182.149 23.9421C182.194 24.1665 182.194 24.3976 182.149 24.622C182.021 25.0828 181.72 25.4748 181.31 25.715C180.901 25.9551 180.415 26.0246 179.956 25.9086C179.732 25.8663 179.518 25.7789 179.327 25.6516C179.136 25.5243 178.973 25.3596 178.846 25.1673C178.719 24.9751 178.632 24.759 178.589 24.532C178.546 24.305 178.549 24.0716 178.597 23.8457Z" fill="white"/>
<path d="M179.518 26.6183L177.325 31.5427C176.798 32.8207 176.167 34.0523 175.439 35.2249C176.021 35.5616 176.476 36.0843 176.732 36.7111C177.456 36.2931 178.268 36.0573 179.101 36.0234C178.888 34.6295 178.807 33.2183 178.86 31.8089C179.013 29.9456 179.561 26.5518 179.561 26.5518" fill="#1D1D1B"/>
<path d="M174.803 25.7976C174.931 25.3378 175.233 24.9474 175.643 24.7109C176.053 24.4743 176.539 24.4105 176.996 24.5333C177.219 24.5726 177.432 24.6576 177.621 24.7829C177.811 24.9083 177.973 25.0715 178.099 25.2625C178.224 25.4535 178.309 25.6683 178.35 25.8938C178.39 26.1193 178.384 26.3507 178.333 26.574C178.275 26.8049 178.171 27.0215 178.029 27.2111C177.886 27.4006 177.707 27.559 177.502 27.677C177.298 27.795 177.071 27.8701 176.837 27.8978C176.604 27.9256 176.366 27.9053 176.14 27.8384C175.915 27.8017 175.7 27.7187 175.508 27.5944C175.316 27.4702 175.151 27.3074 175.023 27.1161C174.896 26.9248 174.808 26.7091 174.767 26.4823C174.725 26.2555 174.73 26.0225 174.781 25.7976" fill="#1D1D1B"/>
<path d="M180.154 26.8178C180.212 26.5869 180.315 26.3703 180.458 26.1808C180.601 25.9913 180.78 25.8328 180.985 25.7148C181.189 25.5968 181.415 25.5217 181.649 25.494C181.883 25.4663 182.12 25.4865 182.347 25.5535C182.571 25.5957 182.785 25.6831 182.976 25.8104C183.166 25.9377 183.33 26.1024 183.457 26.2947C183.583 26.487 183.671 26.703 183.714 26.93C183.756 27.157 183.754 27.3904 183.706 27.6164C183.578 28.0762 183.276 28.4666 182.866 28.7032C182.456 28.9397 181.97 29.0035 181.513 28.8807C181.288 28.8417 181.072 28.7561 180.881 28.6293C180.69 28.5025 180.526 28.3372 180.401 28.1437C180.275 27.9501 180.19 27.7325 180.152 27.5044C180.113 27.2763 180.121 27.0426 180.175 26.8178" fill="#1D1D1B"/>
<path d="M178.092 23.4021C178.22 22.9423 178.522 22.5519 178.932 22.3153C179.343 22.0788 179.829 22.015 180.285 22.1378C180.509 22.1774 180.722 22.2623 180.913 22.3874C181.103 22.5124 181.267 22.6751 181.394 22.8656C181.521 23.0562 181.609 23.2706 181.652 23.4962C181.695 23.7218 181.692 23.9539 181.645 24.1785C181.521 24.6424 181.221 25.0381 180.811 25.2791C180.4 25.5202 179.911 25.587 179.452 25.465C179.228 25.423 179.014 25.3356 178.825 25.208C178.635 25.0803 178.473 24.9152 178.348 24.7224C178.223 24.5297 178.137 24.3133 178.097 24.0864C178.057 23.8595 178.063 23.6268 178.114 23.4021" fill="#1D1D1B"/>
<path d="M169.934 35.358L169.518 34.9365C169.051 36.729 168.48 38.4918 167.807 40.2158C167.334 41.5132 166.684 42.7376 165.877 43.8536C166.441 44.2779 166.906 44.8233 167.237 45.4507C167.989 45.0299 168.834 44.8086 169.693 44.8075C169.43 43.404 169.313 41.9766 169.342 40.5485C169.496 38.6631 169.934 35.358 169.934 35.358Z" fill="white"/>
<path d="M165.351 34.5374C165.479 34.0776 165.781 33.6872 166.191 33.4506C166.602 33.214 167.087 33.1502 167.544 33.273C167.77 33.3124 167.986 33.398 168.178 33.5245C168.37 33.651 168.535 33.8158 168.662 34.0088C168.789 34.2018 168.876 34.4191 168.918 34.6472C168.959 34.8754 168.955 35.1097 168.904 35.3359C168.775 35.7958 168.474 36.1861 168.063 36.4227C167.653 36.6593 167.167 36.7231 166.711 36.6003C166.486 36.558 166.272 36.4706 166.081 36.3433C165.891 36.216 165.727 36.0514 165.6 35.8591C165.474 35.6668 165.386 35.4508 165.343 35.2238C165.301 34.9968 165.303 34.7634 165.351 34.5374Z" fill="white"/>
<path d="M170.658 35.4913C170.716 35.26 170.82 35.0429 170.962 34.8525C171.105 34.6622 171.283 34.5024 171.488 34.3826C171.692 34.2629 171.917 34.1854 172.152 34.1549C172.386 34.1244 172.623 34.1413 172.851 34.2048C173.077 34.2442 173.293 34.3297 173.485 34.4562C173.677 34.5827 173.842 34.7475 173.969 34.9405C174.096 35.1336 174.183 35.3508 174.225 35.579C174.266 35.8072 174.262 36.0415 174.211 36.2677C174.082 36.7275 173.781 37.1179 173.37 37.3545C172.96 37.591 172.474 37.6548 172.018 37.532C171.793 37.4921 171.579 37.4073 171.388 37.2826C171.196 37.1578 171.031 36.9957 170.902 36.8056C170.774 36.6155 170.684 36.4013 170.638 36.1756C170.592 35.95 170.592 35.7173 170.636 35.4913" fill="white"/>
<path d="M168.618 32.1416C168.751 31.6849 169.054 31.2981 169.463 31.0624C169.872 30.8267 170.355 30.7603 170.811 30.8772C171.038 30.9131 171.256 30.9967 171.449 31.1226C171.642 31.2486 171.807 31.4141 171.933 31.6084C172.059 31.8028 172.143 32.0217 172.18 32.2511C172.218 32.4804 172.207 32.7152 172.149 32.9401C172.026 33.404 171.726 33.7997 171.315 34.0408C170.904 34.2818 170.416 34.3486 169.956 34.2267C169.73 34.1815 169.515 34.0918 169.323 33.9626C169.131 33.8334 168.967 33.6672 168.838 33.4736C168.71 33.28 168.621 33.0627 168.575 32.8341C168.53 32.6056 168.53 32.3702 168.575 32.1416" fill="white"/>
<path d="M169.54 34.8701L167.347 39.7723C166.823 41.0731 166.192 42.3271 165.461 43.521C166 43.9178 166.442 44.4337 166.754 45.0294C167.471 44.6552 168.253 44.429 169.057 44.364C168.856 42.9615 168.782 41.5433 168.838 40.1272C168.991 38.2639 169.54 34.8923 169.54 34.8923" fill="#1D1D1B"/>
<path d="M164.825 34.1159C164.953 33.6551 165.254 33.2631 165.663 33.0229C166.073 32.7827 166.558 32.7133 167.018 32.8293C167.24 32.8742 167.452 32.9634 167.64 33.0918C167.828 33.2202 167.989 33.3852 168.114 33.5772C168.238 33.7692 168.324 33.9844 168.365 34.2102C168.407 34.4359 168.403 34.6678 168.355 34.8922C168.294 35.1215 168.189 35.3363 168.046 35.5242C167.902 35.7121 167.723 35.8694 167.519 35.987C167.316 36.1045 167.091 36.18 166.858 36.2092C166.625 36.2383 166.388 36.2204 166.162 36.1566C165.942 36.1116 165.732 36.0231 165.546 35.8961C165.359 35.7692 165.199 35.6063 165.075 35.4167C164.951 35.2272 164.865 35.0147 164.822 34.7915C164.779 34.5683 164.78 34.3387 164.825 34.1159Z" fill="#1D1D1B"/>
<path d="M170.153 35.1142C170.214 34.8849 170.32 34.6701 170.463 34.4822C170.607 34.2943 170.785 34.137 170.989 34.0195C171.193 33.9019 171.418 33.8264 171.651 33.7973C171.884 33.7681 172.12 33.786 172.346 33.8498C172.572 33.8892 172.788 33.9748 172.98 34.1013C173.173 34.2278 173.338 34.3926 173.465 34.5856C173.592 34.7786 173.679 34.9959 173.72 35.224C173.762 35.4522 173.757 35.6865 173.706 35.9127C173.645 36.142 173.54 36.3568 173.397 36.5447C173.253 36.7326 173.074 36.8899 172.87 37.0075C172.666 37.125 172.441 37.2006 172.208 37.2297C171.976 37.2588 171.739 37.2409 171.513 37.1771C171.287 37.1377 171.071 37.0522 170.879 36.9257C170.687 36.7992 170.522 36.6344 170.395 36.4413C170.268 36.2483 170.181 36.0311 170.139 35.8029C170.098 35.5747 170.102 35.3404 170.153 35.1142Z" fill="#1D1D1B"/>
<path d="M168.092 31.6982C168.225 31.2416 168.528 30.8548 168.937 30.619C169.346 30.3833 169.829 30.3169 170.285 30.4338C170.511 30.4729 170.726 30.5584 170.917 30.6853C171.109 30.8121 171.272 30.9774 171.398 31.1709C171.523 31.3644 171.608 31.582 171.647 31.8101C171.685 32.0382 171.677 32.272 171.623 32.4967C171.565 32.7276 171.461 32.9443 171.318 33.1338C171.175 33.3233 170.996 33.4818 170.792 33.5998C170.587 33.7178 170.361 33.7929 170.127 33.8206C169.893 33.8483 169.656 33.8281 169.43 33.7611C169.205 33.7188 168.991 33.6314 168.801 33.5041C168.61 33.3768 168.446 33.2122 168.32 33.0199C168.193 32.8276 168.106 32.6116 168.063 32.3846C168.02 32.1576 168.022 31.9242 168.07 31.6982" fill="#1D1D1B"/>
<path d="M117.303 15.5272C117.303 16.2149 117.105 16.4145 116.689 16.4145C116.668 16.5337 116.621 16.6469 116.553 16.7464C116.485 16.8459 116.397 16.9294 116.294 16.9913C115.921 15.86 116.623 15.4163 117.303 15.5272Z" fill="white"/>
<path d="M131.732 29.3026C131.792 30.1504 131.551 30.9919 131.053 31.676C131.601 33.8942 134.386 33.4728 135.219 33.6724C135.439 33.6724 135.702 33.8942 135.548 34.715C135.063 36.0006 134.875 37.3817 135 38.7521C134.997 38.886 134.963 39.0175 134.903 39.1366C134.842 39.2557 134.755 39.3593 134.649 39.4397C133.266 39.7077 131.919 40.1396 130.636 40.7262L130.351 40.4601C130.221 40.2451 130.18 39.9869 130.237 39.7416C130.295 39.4964 130.446 39.2842 130.658 39.1513C130.482 38.9739 130.658 38.6411 130.768 38.4637C131.513 37.9535 132.303 38.2419 133.092 38.131C133.336 37.741 133.482 37.2963 133.516 36.8361C133.551 36.3758 133.473 35.914 133.289 35.4913C133.18 35.2695 132.763 35.2251 132.522 35.2473C130.953 35.3177 129.391 35.5105 127.851 35.8241C127.105 35.935 124.649 36.179 123.838 34.8037C123.671 34.3997 123.585 33.9661 123.585 33.5282C123.585 33.0903 123.671 32.6568 123.838 32.2528C123.492 32.5003 123.216 32.8357 123.039 33.2251C122.862 33.6145 122.79 34.0442 122.829 34.471C122.834 34.8788 122.921 35.2813 123.084 35.6541C123.248 36.027 123.484 36.3625 123.779 36.6403C124.075 36.9181 124.422 37.1325 124.802 37.2706C125.181 37.4086 125.584 37.4674 125.987 37.4433C126.118 37.4433 126.404 37.643 126.272 38.0866C125.831 39.3568 125.537 40.6743 125.395 42.0128L120.132 43.5877C120.041 43.5191 119.97 43.4282 119.925 43.3236C119.879 43.2191 119.861 43.1045 119.872 42.9909C119.883 42.8773 119.923 42.7684 119.988 42.6748C120.052 42.5812 120.14 42.506 120.241 42.4564C120.241 42.4564 120.241 41.9462 120.482 41.7244C121.307 41.1872 122.298 40.9741 123.268 41.1255C123.606 40.6983 123.784 40.1643 123.772 39.6172C123.805 39.1405 123.73 38.6627 123.553 38.2197C121.711 37.8426 120.724 38.2197 119.013 36.8888C118.481 36.4862 118.087 35.9254 117.887 35.2848C117.686 34.6443 117.689 33.9564 117.895 33.3175C118.414 32.164 119.347 31.2526 120.504 30.7666C121.569 30.2661 122.712 29.9583 123.882 29.8571C122.851 29.48 120.373 29.8571 118.838 27.8829C118.217 28.2078 117.511 28.3243 116.82 28.2157C115.83 27.9603 114.889 27.5406 114.035 26.9735C113.772 26.7517 113.224 26.064 112.522 26.3524L112.061 26.6186C112.019 26.1922 111.856 25.7872 111.592 25.4526C111.327 25.118 110.972 24.8681 110.57 24.7331C110.609 24.595 110.676 24.4666 110.767 24.3559C110.857 24.2452 110.97 24.1546 111.096 24.0898C111.535 23.8237 111.601 23.2247 112.39 23.6684C113.18 24.112 114.232 25.7535 115.768 25.8866C116.341 25.9489 116.921 25.9038 117.478 25.7535C117.478 25.6204 117.478 25.1546 117.303 25.2433C116.599 25.1287 115.935 24.8426 115.365 24.4097C114.796 23.9768 114.339 23.4103 114.035 22.7589C113.691 21.8524 113.016 21.1141 112.149 20.696C111.54 20.5667 110.905 20.6528 110.351 20.94C110.343 20.2477 110.095 19.5803 109.649 19.0546C109.649 18.8771 109.057 19.0546 109.145 18.8549C109.583 18.1229 110.965 18.1451 111.031 18.1229C111.999 18.1954 112.906 18.6303 113.575 19.3429C114.115 20.0415 114.6 20.7834 115.022 21.5611C115.417 22.1822 115.526 22.4927 116.118 22.7811C116.515 22.9695 116.954 23.0461 117.39 23.0029C117.981 22.5533 118.436 21.9467 118.706 21.2506L118.268 20.6738C117.325 21.1397 116.886 21.0287 116.557 20.452C116.228 19.8753 116.557 19.4538 116.689 19.8309C116.82 20.208 116.864 20.0306 117.237 19.8309C117.383 19.8093 117.522 19.7557 117.645 19.6738C117.768 19.5919 117.872 19.4837 117.949 19.3569C118.027 19.23 118.076 19.0876 118.093 18.9395C118.11 18.7915 118.095 18.6415 118.048 18.5C117.997 18.3461 117.916 18.2045 117.808 18.0841C117.701 17.9637 117.57 17.8671 117.423 17.8004C117.277 17.7337 117.119 17.6984 116.958 17.6966C116.798 17.6949 116.639 17.7267 116.491 17.7902C115.987 17.9233 115.789 18.1673 115.899 18.7662C115.899 18.9215 115.899 19.0102 115.746 18.9658C115.197 18.3004 115.044 17.6127 115.329 17.1691C115.166 17.0464 115.025 16.8964 114.912 16.7255C115.552 16.2404 116.31 15.9412 117.105 15.8604C117.5 15.8604 117.456 16.0156 117.281 16.06C117.105 16.1044 116.096 16.5258 116.579 16.5258C117.061 16.5258 117.171 16.9473 117.5 16.5258C117.829 16.1044 118.75 15.7273 118.224 15.7495C117.697 15.7716 117.5 15.5276 116.886 15.5276C116.689 15.5276 116.732 15.2393 116.732 15.2393C117.178 15.0475 117.548 14.7122 117.785 14.2855C118.026 13.8418 118.158 14.2855 118.026 14.7735H118.333C119.101 12.5553 121.053 13.7753 122.083 12.8215C122.259 12.8215 122.39 12.6662 122.325 12.8215C122.203 13.1428 122.203 13.4983 122.325 13.8196H122.61C123.718 13.9187 124.759 14.4005 125.558 15.1841C126.356 15.9677 126.864 17.0054 126.996 18.1229C126.999 18.8976 127.17 19.6622 127.495 20.3633C127.821 21.0644 128.294 21.6851 128.882 22.1822C128.243 22.1804 127.612 22.0455 127.027 21.786C126.442 21.5265 125.916 21.1479 125.482 20.6738C125.651 21.4434 125.995 22.1628 126.486 22.7749C126.977 23.387 127.602 23.8752 128.311 24.2008C127.153 24.2035 126.013 23.9057 125 23.3357C125.272 24.0007 125.68 24.5996 126.198 25.093C126.716 25.5863 127.332 25.9626 128.004 26.1971C128.969 26.5964 130.526 26.5298 131.184 27.9495C132.303 27.7055 133.114 27.1288 132.851 25.7313C132.368 23.2469 128.18 21.5389 127.61 18.6775C127.281 16.792 128.136 15.8604 129.32 15.6607C129.585 15.5811 129.864 15.5612 130.137 15.6025C130.41 15.6438 130.671 15.7453 130.901 15.8997C131.131 16.0542 131.325 16.2578 131.468 16.4964C131.612 16.7349 131.702 17.0024 131.732 17.28C131.952 18.5222 132.281 19.8975 133.553 19.9862C133.904 19.9862 134.211 20.208 133.553 20.4077C130.789 21.2062 130.11 19.7422 130.11 17.5906C130.11 16.9916 129.978 16.3706 129.101 16.548C128.596 16.548 128.202 17.4575 128.355 18.3891C128.86 21.0287 133.728 22.6258 134.342 25.7535C134.412 26.5491 134.178 27.3416 133.689 27.9686C133.2 28.5955 132.492 29.0093 131.711 29.1251V29.3248L131.732 29.3026Z" fill="white"/>
<path d="M130.943 28.5037C131.011 29.3558 130.777 30.2046 130.285 30.8993C130.833 33.1175 133.596 32.6739 134.43 32.8957C134.671 32.8957 134.934 33.0953 134.759 33.9382C134.28 35.2176 134.1 36.5917 134.232 37.9532C134.221 38.0909 134.182 38.2248 134.118 38.3468C134.054 38.4688 133.966 38.5764 133.86 38.663C132.487 38.934 131.149 39.358 129.868 39.9274L129.583 39.6612C129.516 39.5574 129.471 39.4408 129.45 39.3187C129.429 39.1965 129.434 39.0714 129.462 38.9509C129.491 38.8304 129.544 38.7171 129.617 38.618C129.691 38.5189 129.784 38.4361 129.89 38.3746C129.715 38.175 129.89 37.8423 130 37.687C130.746 37.1546 131.535 37.4652 132.325 37.3321C132.571 36.9387 132.717 36.4903 132.752 36.0261C132.786 35.5619 132.707 35.0963 132.522 34.6703C132.416 34.5824 132.293 34.5174 132.161 34.4793C132.029 34.4411 131.89 34.4306 131.754 34.4484C130.177 34.5277 128.608 34.7279 127.061 35.0473C126.338 35.0473 123.86 35.4244 123.07 34.0048C122.898 33.6021 122.809 33.168 122.809 32.7293C122.809 32.2907 122.898 31.8566 123.07 31.4539C122.719 31.6972 122.438 32.0311 122.256 32.4211C122.075 32.8111 122 33.243 122.039 33.6721C122.099 34.4296 122.435 35.1375 122.983 35.6582C123.53 36.1789 124.249 36.4751 125 36.4892C125.153 36.4892 125.417 36.6888 125.307 37.1324C124.865 38.4036 124.563 39.7203 124.408 41.0586C122.785 41.5688 120.943 42.079 119.167 42.6114C119.072 42.5489 118.994 42.4635 118.939 42.3628C118.885 42.262 118.857 42.1492 118.857 42.0346C118.857 41.92 118.885 41.8072 118.939 41.7065C118.994 41.6058 119.072 41.5203 119.167 41.4579C119.167 41.4579 119.167 40.9699 119.452 40.7481C120.277 40.2108 121.267 39.9978 122.237 40.1492C122.561 39.7228 122.738 39.2008 122.741 38.663C122.738 38.1868 122.657 37.7145 122.5 37.2655C120.658 36.8663 119.649 37.1546 117.939 35.9124C117.413 35.5049 117.026 34.9426 116.829 34.303C116.633 33.6635 116.637 32.978 116.842 32.3412C117.382 31.2025 118.308 30.2974 119.452 29.7902C120.553 29.2772 121.732 28.9547 122.939 28.8364C121.886 28.4593 119.386 28.8364 117.851 26.8622C117.237 27.183 116.541 27.3068 115.855 27.2171C114.954 26.9894 114.089 26.6307 113.289 26.1524C113.026 25.9306 112.456 25.2208 111.776 25.5313C111.602 25.5998 111.434 25.6813 111.272 25.7753C111.221 25.3493 111.055 24.9456 110.792 24.609C110.529 24.2724 110.179 24.0158 109.781 23.8677C109.882 23.5999 110.077 23.379 110.329 23.2466C110.746 22.9582 110.833 22.3593 111.645 22.803C112.456 23.2466 113.443 24.9102 115 25.0211C115.573 25.0947 116.155 25.0494 116.711 24.8881C116.711 24.755 116.711 24.3113 116.513 24.3779C115.824 24.2634 115.173 23.9843 114.612 23.5638C114.051 23.1433 113.598 22.5934 113.289 21.96C112.938 21.0813 112.273 20.3685 111.425 19.9637C110.807 19.8261 110.16 19.9207 109.605 20.2299C109.592 19.5386 109.344 18.873 108.903 18.3444C108.903 18.1669 108.289 18.2335 108.399 18.1448C108.86 17.3906 110.241 17.4128 110.285 17.4128C110.764 17.4368 111.234 17.557 111.667 17.7665C112.1 17.9759 112.488 18.2704 112.807 18.6328C113.367 19.3174 113.852 20.0611 114.254 20.8509C114.671 21.472 114.759 21.7604 115.373 22.0488C115.758 22.2495 116.19 22.3415 116.623 22.315C117.214 21.8422 117.675 21.2234 117.961 20.5182L117.522 19.9637C116.557 20.4295 116.162 20.2964 115.811 19.7197C115.461 19.1429 115.811 18.7215 115.943 19.0986C116.075 19.4757 116.096 19.2982 116.469 19.2317C116.615 19.2101 116.754 19.1565 116.878 19.0746C117.001 18.9927 117.105 18.8845 117.182 18.7576C117.259 18.6308 117.308 18.4883 117.325 18.3403C117.342 18.1922 117.327 18.0422 117.281 17.9008C117.235 17.7456 117.157 17.602 117.053 17.4793C116.948 17.3566 116.819 17.2575 116.675 17.1884C116.53 17.1194 116.372 17.0819 116.212 17.0785C116.052 17.0752 115.893 17.1059 115.746 17.1688C115.219 17.324 115.044 17.568 115.153 18.1448C115.153 18.3 115.153 18.4109 114.978 18.3222C114.43 17.6789 114.276 16.9913 114.583 16.5698C114.415 16.4445 114.273 16.286 114.167 16.104C114.769 15.6407 115.479 15.3427 116.228 15.2389C116.623 15.2389 116.579 15.4164 116.403 15.4386C116.228 15.4608 115.241 15.9266 115.724 15.9266C116.206 15.9266 116.294 16.348 116.623 15.9266C116.952 15.5051 117.873 15.128 117.368 15.1502C116.864 15.1724 116.71 14.7288 116.096 14.8397C115.921 14.8397 115.965 14.5513 115.965 14.5513C116.409 14.366 116.774 14.0282 116.996 13.5975C117.215 13.176 117.39 13.5975 117.259 14.0855H117.544C118.333 11.8673 120.263 13.0873 121.316 12.1557C121.469 12.0226 121.623 12.0004 121.535 12.1557C121.436 12.4884 121.436 12.8432 121.535 13.176H121.82C122.946 13.2885 123.998 13.792 124.797 14.6009C125.597 15.4098 126.095 16.474 126.206 17.6124C126.221 18.3705 126.401 19.1159 126.735 19.7948C127.069 20.4738 127.547 21.0693 128.136 21.5386C127.491 21.5367 126.854 21.3952 126.268 21.1235C125.681 20.8519 125.159 20.4564 124.737 19.9637C124.891 20.7302 125.224 21.4484 125.709 22.0581C126.193 22.6678 126.815 23.1514 127.522 23.4684C126.36 23.4736 125.217 23.1675 124.211 22.5811C124.48 23.2387 124.886 23.8303 125.4 24.3162C125.915 24.802 126.526 25.171 127.193 25.3982C128.158 25.8197 129.693 25.731 130.373 27.1728C131.491 26.9066 132.303 26.3299 132.039 24.9546C131.579 22.4259 127.434 20.6957 126.886 17.7455C126.535 15.8822 127.412 14.9284 128.575 14.7288C128.841 14.6493 129.12 14.6295 129.395 14.6707C129.669 14.7119 129.931 14.8131 130.163 14.9673C130.395 15.1214 130.59 15.3248 130.736 15.5633C130.883 15.8017 130.975 16.0695 131.009 16.348C131.228 17.5902 131.557 18.9655 132.807 19.0542C133.18 19.0542 133.443 19.276 132.807 19.4757C130.022 20.3629 129.386 18.9211 129.386 16.7473C129.386 16.1706 129.386 15.5273 128.355 15.7048C127.873 15.7048 127.478 16.6142 127.653 17.5459C128.158 20.2077 133.026 21.7826 133.618 24.9324C133.684 25.7236 133.451 26.5106 132.967 27.1358C132.483 27.7609 131.784 28.1782 131.009 28.3041V28.5037H130.943Z" fill="#8C734B"/>
<path d="M80 21.1392C81.1109 19.5034 82.5261 18.102 84.1667 17.0134C89.6491 13.0872 98.5965 10.3589 103.18 5.54539C104.145 4.54721 104.605 7.34212 104.167 9.33849C103.377 13.309 99.2105 26.4851 79.2982 34.5371C85.5702 33.2062 87.1272 35.2469 87.5219 35.6462C87.9167 36.0455 88.2675 37.3098 87.1272 37.8644C79.9123 40.8589 71.4474 54.3899 52.8947 54.168C49.2763 57.8724 44.4737 59.1146 43.7281 55.3659C43.3163 53.4436 43.3163 51.4543 43.7281 49.532C45.7456 36.9993 54.9342 31.4094 56.6667 27.7938C57.0395 26.9731 57.7412 27.4167 58.0483 27.7938C58.9307 31.8571 58.8102 36.0776 57.6974 40.0826C58.9157 35.9039 60.8291 31.9657 63.3553 28.4371C68.2895 22.0931 75.1974 18.8767 79.2325 14.041C79.8026 13.3312 80.3289 14.3294 80.4605 15.128C80.7055 17.141 80.5185 19.1838 79.9123 21.1171" fill="#FFE897"/>
<path d="M77.4123 28.1267C79.8728 27.4399 82.2009 26.3375 84.2983 24.8659C88.4928 22.1812 92.3512 18.9934 95.7895 15.3721C96.3597 14.751 97.0614 14.6844 96.4912 15.5717C93.4345 19.2302 89.9093 22.4602 86.0088 25.1765C82.9962 27.2272 79.7298 28.868 76.2939 30.0565C74.8766 32.1223 73.2844 34.0594 71.5351 35.8459C95.5044 27.439 102.346 13.4866 102.829 9.05025C102.829 8.51789 102.829 8.31825 102.61 8.29607C102.39 8.27389 102.303 8.18516 101.689 8.76189C96.8202 13.6419 84.9562 14.8397 78.8816 25.5757C78.4795 26.4747 77.9872 27.3295 77.4123 28.1267Z" fill="#8C734B"/>
<path d="M60.8114 40.5707C61.9383 38.2246 63.2898 35.9957 64.8465 33.9162C66.6758 31.3802 68.7392 29.0258 71.0088 26.8845C71.2632 26.6278 71.5424 26.3975 71.8421 26.1969C72.5658 25.6645 72.6974 26.1969 72.2807 26.6405L71.9079 26.9954C69.9985 28.9685 68.2184 31.0654 66.5789 33.2729C65.2467 35.0298 64.0793 36.9086 63.0921 38.8849C62.6974 39.6391 62.3026 40.7704 63.3553 40.0606C66.436 38.2706 69.237 36.028 71.6667 33.406C75.7029 28.8731 78.2471 23.1837 78.9474 17.1245C77.6974 18.7216 71.2939 23.2911 66.886 27.9493C63.5907 31.5662 60.9881 35.7707 59.2105 40.3489C58.443 42.4562 60 42.1013 60.7237 40.5707" fill="#8C734B"/>
<path d="M56.6667 48.6226C62.8644 44.5416 69.5476 41.2697 76.557 38.8848C77.8947 38.4633 77.8289 38.8848 77.5219 39.0622C77.341 39.1759 77.1502 39.2724 76.9517 39.3506C69.1767 42.7477 61.7198 46.8457 54.671 51.595C52.6096 53.059 55.3509 52.6375 56.2061 52.5044C60.5955 51.8791 64.8502 50.5145 68.7938 48.4673C76.7324 44.031 78.5965 40.8811 82.1491 38.7517L84.8465 37.2433C85.4386 36.9328 85.2631 36.2895 84.1886 36.2008C77.4234 35.8935 70.696 37.3768 64.671 40.5041C57.3465 44.6742 56.1842 47.7797 55.6798 48.5561C55.1754 49.3324 56.0965 48.9775 56.6667 48.5561" fill="#8C734B"/>
<path d="M46.6667 55.5877C47.1786 53.3017 47.9132 51.0726 48.8596 48.9331C50.1301 45.6583 51.6706 42.4973 53.4649 39.4837C54.364 38.0418 54.4517 38.5077 53.9254 39.6389C53.5746 40.3266 51.2061 45.4062 49.7807 49.1993C48.9474 51.4175 48.5965 52.6153 47.807 54.9888C47.3684 56.7633 50.5702 54.6561 51.7982 52.5932C55.4581 46.2411 57.2888 38.9804 57.0833 31.6313C57.0833 30.2338 56.5789 30.3669 56.3596 30.7884C56.1403 31.2098 49.7807 38.0419 48.443 41.0586C46.5129 44.7321 45.3696 48.7756 45.0877 52.9259C45.0877 54.3677 45.3728 55.5212 46.557 55.5212" fill="#8C734B"/>
</svg>
